<?xml version="1.0" encoding="utf-8"?>
<!-- Generator: Adobe Illustrator 26.5.3, SVG Export Plug-In . SVG Version: 6.00 Build 0)  -->
<svg version="1.1" id="圖層_1" xmlns="http://www.w3.org/2000/svg" xmlns:xlink="http://www.w3.org/1999/xlink" x="0px" y="0px"
	 viewBox="0 0 500 6" style="enable-background:new 0 0 500 6;" xml:space="preserve">
<style type="text/css">
	.st0{fill:#CB8857;}
</style>
<g>
	<path class="st0" d="M271.5,0.9c7.3-0.1,114.6-0.1,121.9-0.2c-19.2,0.4-138.3,1.1-157.6,1c-11.9-0.1-23.4-0.4-35.5-0.4
		c-13.8,0-27.7,0.5-41.4,0.9C146,2.5,133.4,3,120.6,3.4C107.7,3.8,94,3.8,81,3.9C67.7,4,54.5,3.6,41.2,3.6c-6.6,0-13.3,0-19.9-0.3
		c-0.4,0-2.1-0.1-4.3-0.2C17,3,17,3,17,2.9C19.4,3,21.4,3,21.8,3.1c6.6,0.2,13.3,0.2,20,0.2c13.4,0,26.6,0.4,40,0.2
		c13-0.2,26.6-0.1,39.5-0.5c13.8-0.5,27.4-1,41.4-1.3C175.9,1.4,189.1,1,202.4,1c11.8,0,23,0.4,34.7,0.4c10.9,0,21.7-0.3,32.4-0.6
		C270.2,0.9,270.8,0.9,271.5,0.9z"/>
	<path class="st0" d="M484.8,0.9c-1.5,0-24.9,1.1-26.5,1.2c-16.6,0.4-32.7,0.8-49.4,0.5c-7.8-0.1-15-0.1-22.7,0.1
		c-8.3,0.2-116.7,0.1-125,0.2c-8.3,0.1-16.5,0.4-24.8,0.4c-9,0-18-0.1-27.1-0.1c-34,0.1-67.3,1.3-101,1.9
		C91.6,5.4,74.2,5.3,57.5,5.2C43.7,5.1,28.4,4.9,15.2,4.1l0,0c12.9,0.7,27.9,0.8,41,0.9C73,5.2,90.6,5.2,107.3,4.9
		c33.8-0.6,67-1.8,101-2c15.6-0.1,30.8,0.1,46.4-0.2c8.6-0.2,117.4,0,126-0.1c8.2-0.1,16.1-0.4,24.3-0.3c17,0.1,33.1,0,49.9-0.4
		c2.7-0.1,27.2-1.2,29.9-1.2C484.9,0.7,484.8,0.8,484.8,0.9z"/>
	<path class="st0" d="M150.7,4.9c16.9-0.4,33.7-0.7,50.7-0.6c16.9,0.1,33.9,0.4,50.8,0.4c7.9,0,15.9,0,23.7-0.2
		c7.7-0.2,161.9-0.4,169.7-0.5l5.8,0.3"/>
</g>
<g>
	<path class="st0" d="M283.6,2.9c-3.6,0-23.4,1.2-27,1.2c-7,0-13.9-0.2-20.9-0.2c-7.2,0-12.1-0.2-19.3,0c-0.1,0,1.9,0.3,2,0.3
		c4,0.1,3.8,0.2,7.7,0.1c3.8-0.1,7.7,0,11.5,0c7.7,0,15.5,0.1,23.2,0.1"/>
	<path class="st0" d="M268.3,1.6L268.3,1.6"/>
</g>
<path class="st0" d="M232.3,3c6,0,11.9-0.1,17.9-0.1c11.4,0,23.1,0.4,34.4,0.1c0.1,0-0.1,0-0.2,0c-11.6,0.4-23.3,0.1-35,0.1
	c-5.6,0-11.2,0.1-16.9,0.1c-5.6,0.1-11.5-0.1-17-0.3c-0.4,0,0.2-0.1,0.4-0.1C221.4,2.7,226.8,3,232.3,3z"/>
</svg>
