<?xml version="1.0" encoding="utf-8"?>
<!-- Generator: Adobe Illustrator 26.5.3, SVG Export Plug-In . SVG Version: 6.00 Build 0)  -->
<svg version="1.1" id="圖層_1" xmlns="http://www.w3.org/2000/svg" xmlns:xlink="http://www.w3.org/1999/xlink" x="0px" y="0px"
	 viewBox="0 0 1024 1024" style="enable-background:new 0 0 1024 1024;" xml:space="preserve">
<style type="text/css">
	.st0{fill:#FFF4DE;}
	.st1{fill:none;stroke:#7B7475;stroke-width:4;stroke-miterlimit:16;stroke-dasharray:3.5667,3.5667;}
	.st2{fill:none;stroke:#7B7475;stroke-width:4;stroke-miterlimit:16;}
	.st3{fill:#E60B32;}
	.st4{fill:none;stroke:#FFFFFF;stroke-width:9.5;stroke-linecap:round;stroke-linejoin:round;stroke-dasharray:0.95,28.5;}
</style>
<g id="圖層_3">
	<rect class="st0" width="1024" height="1024"/>
</g>
<g id="Grid">
	<g>
		<line class="st1" x1="0" y1="512" x2="1024" y2="512"/>
		<line class="st2" x1="0" y1="204.5" x2="1024" y2="204.5"/>
		<line class="st2" x1="0" y1="819.5" x2="1024" y2="819.5"/>
	</g>
</g>
<g id="a">
	<path class="st3" d="M608.8,563.8c-28-34.5-63.6-51.8-106.9-51.8c-47.2,0-82.9,14.7-106.9,44.1c-24,29.4-36,65.9-36,109.7
		s12,80.3,36,109.7s59.6,44.1,106.9,44.1c43.3,0,81.3-16.3,106.9-51.8c22.8-31.6,35.1-55.4,35.1-105.4S608.8,563.8,608.8,563.8z
		 M501.9,763.3c-74.3,0-86.6-69-86.6-97.5s5.5-97.9,91.9-97.9c38.1,0,85,41.4,85,104.8C592.1,718.7,558.2,763.3,501.9,763.3z"/>
	<path class="st4" d="M499.1,792.6c-93.6,0-109.1-86.9-109.1-122.8c0-35.9,6.9-123.3,115.7-123.3c48,0,107,52.2,107,131.9
		C612.8,736.5,570.1,792.6,499.1,792.6z"/>
	<path class="st3" d="M608.8,515.6v303H665v-303H608.8z"/>
	<line class="st4" x1="636.9" y1="515.6" x2="636.9" y2="819.5"/>
</g>
</svg>
