<?xml version="1.0" encoding="utf-8"?>
<!-- Generator: Adobe Illustrator 26.5.3, SVG Export Plug-In . SVG Version: 6.00 Build 0)  -->
<svg version="1.1" xmlns="http://www.w3.org/2000/svg" xmlns:xlink="http://www.w3.org/1999/xlink" x="0px" y="0px"
	 viewBox="0 0 1024 1024" style="enable-background:new 0 0 1024 1024;" xml:space="preserve">
<style type="text/css">
	.st0{fill:#FFF4DE;}
	.st1{fill:none;stroke:#D3D3D3;stroke-width:4;stroke-miterlimit:16;stroke-dasharray:3.5667,3.5667;}
	.st2{fill:none;stroke:#D3D3D3;stroke-width:4;stroke-miterlimit:16;}
	.st3{fill:#77482C;}
	.st4{fill:none;stroke:#FFFFFF;stroke-width:10.9622;stroke-linecap:round;stroke-linejoin:round;stroke-dasharray:1.0962,32.8865;}
</style>
<g id="圖層_3">
	<rect class="st0" width="1024" height="1024"/>
</g>
<g id="Grid">
	<g>
		<line class="st1" x1="0" y1="512" x2="1024" y2="512"/>
		<line class="st2" x1="0" y1="204.5" x2="1024" y2="204.5"/>
		<line class="st2" x1="0" y1="819.5" x2="1024" y2="819.5"/>
	</g>
</g>
<g id="e">
	<path class="st3" d="M420.9,680.8h236.8c1.2-5,1.9-12.5,1.9-22.5c0-41.3-15.1-75.9-45.4-104.1S548.6,512,508.1,512
		c-37.8,0-71.1,14.1-100.1,42.2c-29,28.1-43.5,66.6-43.5,115.3c0,41.2,14.5,76.6,43.5,106c29,29.4,64.9,44.1,107.6,44.1
		c45.5,0,83.4-17.2,113.6-51.8c6.2-9.2,12-20.6,17.2-34.1l-57.8-15.4c-2.2,4.8-4.6,9.4-7.1,13.9c-14.2,20.8-36.2,31.1-66,31.1
		c-27.2,0-49.2-7.9-66-23.6c-14.8-15.2-27.4-37.2-27.4-58.9c0-9.4-0.6-38.1,2.2-48.8c0.8-3,2.2-6.8,4-11
		c13.6-31.7,44.5-52.9,79-53.1c0.2,0,0.4,0,0.7,0c9.9,0,19.4,1.1,28.5,3.2c29.7,7,53.7,29.1,62,58.4c0.2,0.8,0.5,1.7,0.7,2.5H420.9
		V680.8z"/>
	<path class="st4" d="M422.2,659.2h208.6c0,0,0.2-115.6-118.8-115.6S393,665.8,393,665.8s2.6,127.7,119,127.7
		c78.3,0,108.2-66.8,108.2-66.8"/>
</g>
</svg>
