<?xml version="1.0" encoding="utf-8"?>
<!-- Generator: Adobe Illustrator 26.5.3, SVG Export Plug-In . SVG Version: 6.00 Build 0)  -->
<svg version="1.1" xmlns="http://www.w3.org/2000/svg" xmlns:xlink="http://www.w3.org/1999/xlink" x="0px" y="0px"
	 viewBox="0 0 1024 1024" style="enable-background:new 0 0 1024 1024;" xml:space="preserve">
<style type="text/css">
	.st0{fill:#FFF4DE;}
	.st1{fill:none;stroke:#D3D3D3;stroke-width:4;stroke-miterlimit:16;stroke-dasharray:3.5667,3.5667;}
	.st2{fill:none;stroke:#D3D3D3;stroke-width:4;stroke-miterlimit:16;}
	.st3{fill:#FC6A05;}
	.st4{fill:none;stroke:#FFFFFF;stroke-width:10.9622;stroke-linecap:round;stroke-linejoin:round;stroke-dasharray:1.0962,32.8865;}
</style>
<g id="圖層_3">
	<rect class="st0" width="1024" height="1024"/>
</g>
<g id="Grid">
	<g>
		<line class="st1" x1="0" y1="512" x2="1024" y2="512"/>
		<line class="st2" x1="0" y1="204.5" x2="1024" y2="204.5"/>
		<line class="st2" x1="0" y1="819.5" x2="1024" y2="819.5"/>
	</g>
</g>
<g id="f">
	<g>
		<path class="st3" d="M461.3,335.3c0-87.2,43.3-130.8,129.9-130.8c42.1,0,76,11.3,101.6,34l-34,52.1
			c-15.9-13.3-38.4-19.9-67.6-19.9c-42.4,0-63.6,21.5-63.6,64.5v484.3h-66.3V335.3z"/>
	</g>
	<path class="st4" d="M671.2,263.3c0,0-146-72-175.7,45.2v511.1"/>
	<g>
		<path class="st3" d="M368.8,477.5v66.3H633v-66.3H368.8z"/>
	</g>
	<line class="st4" x1="368.8" y1="512" x2="633" y2="512"/>
</g>
</svg>
