<?xml version="1.0" encoding="utf-8"?>
<!-- Generator: Adobe Illustrator 26.5.3, SVG Export Plug-In . SVG Version: 6.00 Build 0)  -->
<svg version="1.1" xmlns="http://www.w3.org/2000/svg" xmlns:xlink="http://www.w3.org/1999/xlink" x="0px" y="0px"
	 viewBox="0 0 1024 1024" style="enable-background:new 0 0 1024 1024;" xml:space="preserve">
<style type="text/css">
	.st0{fill:#FFF4DE;}
	.st1{fill:none;stroke:#D3D3D3;stroke-width:4;stroke-miterlimit:16;stroke-dasharray:3.5667,3.5667;}
	.st2{fill:none;stroke:#D3D3D3;stroke-width:4;stroke-miterlimit:16;}
	.st3{fill:#78533A;}
	.st4{fill:none;stroke:#FFFFFF;stroke-width:10.9622;stroke-linecap:round;stroke-linejoin:round;stroke-dasharray:1.0962,32.8865;}
</style>
<g id="圖層_3">
	<rect class="st0" width="1024" height="1024"/>
</g>
<g id="Grid">
	<g>
		<line class="st1" x1="0" y1="512" x2="1024" y2="512"/>
		<line class="st2" x1="0" y1="204.5" x2="1024" y2="204.5"/>
		<line class="st2" x1="0" y1="819.5" x2="1024" y2="819.5"/>
	</g>
</g>
<g id="i">
	<path class="st3" d="M530.1,512.6v307h-58.8v-307H530.1z"/>
	<line class="st4" x1="500.7" y1="512.6" x2="500.7" y2="819.5"/>
	<path class="st3" d="M530.3,346.2c8.2,8.2,12.3,18.1,12.3,29.6c0,11.8-4.1,21.8-12.3,30c-8.2,8.2-18.1,12.3-29.6,12.3
		c-11.8,0-21.8-4.1-30-12.3s-12.3-18.2-12.3-30c0-11.5,4.1-21.4,12.3-29.6s18.2-12.3,30-12.3C512.2,333.8,522,337.9,530.3,346.2z"/>
	<line class="st4" x1="500.5" y1="333.8" x2="500.5" y2="418.1"/>
</g>
</svg>
