<?xml version="1.0" encoding="utf-8"?>
<!-- Generator: Adobe Illustrator 26.5.3, SVG Export Plug-In . SVG Version: 6.00 Build 0)  -->
<svg version="1.1" xmlns="http://www.w3.org/2000/svg" xmlns:xlink="http://www.w3.org/1999/xlink" x="0px" y="0px"
	 viewBox="0 0 1024 1024" style="enable-background:new 0 0 1024 1024;" xml:space="preserve">
<style type="text/css">
	.st0{fill:#FFF4DE;}
	.st1{fill:none;stroke:#D3D3D3;stroke-width:4;stroke-miterlimit:16;stroke-dasharray:3.5667,3.5667;}
	.st2{fill:none;stroke:#D3D3D3;stroke-width:4;stroke-miterlimit:16;}
	.st3{fill:#F74B4B;}
	.st4{fill:none;stroke:#FFFFFF;stroke-width:10.9622;stroke-linecap:round;stroke-linejoin:round;stroke-dasharray:1.0962,32.8865;}
</style>
<g id="圖層_3">
	<rect class="st0" width="1024" height="1024"/>
</g>
<g id="Grid">
	<g>
		<line class="st1" x1="0" y1="512" x2="1024" y2="512"/>
		<line class="st2" x1="0" y1="204.5" x2="1024" y2="204.5"/>
		<line class="st2" x1="0" y1="819.5" x2="1024" y2="819.5"/>
	</g>
</g>
<g id="m">
	<rect x="291.4" y="512" class="st3" width="57.6" height="307.5"/>
	<line class="st4" x1="320.2" y1="512" x2="320.2" y2="819.5"/>
	<path class="st3" d="M570.9,654v165.6h-57.6V637.2c0-45-27.4-67.6-82.2-67.6c-54.8,0-82.2,22.5-82.2,67.6v-81.4
		c21.5-29.2,48.9-43.8,82.2-43.8c50.9,0,89.2,21.5,114.8,64.5C546,576.5,570.9,618.3,570.9,654z"/>
	<path class="st4" d="M349,580.7c0,0,31.7-42.2,87.4-37.1s105.2,33,105.2,81.9c0,48.9,0,194,0,194"/>
	<path class="st3" d="M792.8,637.2v182.4h-57.6V637.2c0-45-27.4-67.6-82.2-67.6c-54.8,0-82.2,22.5-82.2,67.6V654
		c0-35.6-25-77.5-25-77.5c20.5-37.9,56.2-59.4,107.1-64.5C746.2,512,792.8,553.7,792.8,637.2z"/>
	<path class="st4" d="M557,598.4c0,0,33.6-55.2,100.8-55.2s108.4,41.4,108.4,86.8c0,45.4,0,189.6,0,189.6"/>
</g>
</svg>
