<?xml version="1.0" encoding="utf-8"?>
<!-- Generator: Adobe Illustrator 26.5.3, SVG Export Plug-In . SVG Version: 6.00 Build 0)  -->
<svg version="1.1" xmlns="http://www.w3.org/2000/svg" xmlns:xlink="http://www.w3.org/1999/xlink" x="0px" y="0px"
	 viewBox="0 0 1024 1024" style="enable-background:new 0 0 1024 1024;" xml:space="preserve">
<style type="text/css">
	.st0{fill:#FFF4DE;}
	.st1{fill:none;stroke:#D3D3D3;stroke-width:4;stroke-miterlimit:16;stroke-dasharray:3.5667,3.5667;}
	.st2{fill:none;stroke:#D3D3D3;stroke-width:4;stroke-miterlimit:16;}
	.st3{fill:#A0132B;}
	.st4{fill:none;stroke:#FFFFFF;stroke-width:11.0185;stroke-linecap:round;stroke-linejoin:round;stroke-dasharray:1.1019,33.0553;}
</style>
<g id="圖層_3">
	<rect class="st0" width="1024" height="1024"/>
</g>
<g id="Grid">
	<g>
		<line class="st1" x1="0" y1="512" x2="1024" y2="512"/>
		<line class="st2" x1="0" y1="204.5" x2="1024" y2="204.5"/>
		<line class="st2" x1="0" y1="819.5" x2="1024" y2="819.5"/>
	</g>
</g>
<g id="q">
	<path class="st3" d="M610.9,512h56.2v512h-56.2V512z"/>
	<line class="st4" x1="639" y1="1024" x2="639" y2="512"/>
	<path class="st3" d="M402.2,775.3c30.2,29.4,66.8,44,109.8,44c38,0,75.3-15.5,98.9-38.1c16.9-16.2,49.9-50,49.9-115.4
		s-18.9-90.6-48-117.2c-30-27.4-70.4-36.6-100.8-36.6c-43,0-79.6,14.7-109.8,44c-30.2,29.4-45.3,65.9-45.3,109.6
		S372,745.9,402.2,775.3z M442.3,595.6c19.2-18.2,42.5-27.4,69.7-27.4c27.2,0,50.5,7.9,69.7,23.6c19.2,15.7,28.9,40.4,28.9,73.8
		c0,33.5-9.6,58.1-28.9,74c-19.2,15.9-42.5,23.8-69.7,23.8c-27.2,0-50.5-9.2-69.7-27.5c-19.2-18.4-28.9-41.8-28.9-70.3
		C413.4,637.2,423.1,613.8,442.3,595.6z"/>
	<path class="st4" d="M423.6,574.4c24.4-23.1,53.9-34.7,88.4-34.7c34.6,0,64,10,88.4,29.9c24.4,20,36.6,51.2,36.6,93.6
		c0,42.5-12.2,73.8-36.6,93.9c-24.4,20.1-53.9,30.2-88.4,30.2c-34.5,0-64-11.6-88.4-34.9c-24.4-23.3-36.6-53-36.6-89.1
		C387,627.2,399.2,597.6,423.6,574.4z"/>
</g>
</svg>
