<?xml version="1.0" encoding="utf-8"?>
<!-- Generator: Adobe Illustrator 26.5.3, SVG Export Plug-In . SVG Version: 6.00 Build 0)  -->
<svg version="1.1" xmlns="http://www.w3.org/2000/svg" xmlns:xlink="http://www.w3.org/1999/xlink" x="0px" y="0px"
	 viewBox="0 0 1024 1024" style="enable-background:new 0 0 1024 1024;" xml:space="preserve">
<style type="text/css">
	.st0{fill:#FFF4DE;}
	.st1{fill:none;stroke:#D3D3D3;stroke-width:4;stroke-miterlimit:16;stroke-dasharray:3.5667,3.5667;}
	.st2{fill:none;stroke:#D3D3D3;stroke-width:4;stroke-miterlimit:16;}
	.st3{fill:#FFBB17;}
	.st4{fill:none;stroke:#FFFFFF;stroke-width:11.0185;stroke-linecap:round;stroke-linejoin:round;stroke-dasharray:1.1019,33.0553;}
</style>
<g id="圖層_3">
	<rect class="st0" width="1024" height="1024"/>
</g>
<g id="Grid">
	<g>
		<line class="st1" x1="0" y1="512" x2="1024" y2="512"/>
		<line class="st2" x1="0" y1="204.5" x2="1024" y2="204.5"/>
		<line class="st2" x1="0" y1="819.5" x2="1024" y2="819.5"/>
	</g>
</g>
<g id="t">
	<rect x="422.3" y="486.4" class="st3" width="170.1" height="51.2"/>
	<line class="st4" x1="422.3" y1="512" x2="592.5" y2="512"/>
	<path class="st3" d="M516.6,701.3c0,44.6,14.1,67,42.4,67c11.8,0,22.3-1.4,31.4-4.1l11.3,49.2c-12.8,4.1-27,6.1-42.7,6.1
		c-62.4,0-93.6-39.4-93.6-118.2V374.7h51.2V701.3z"/>
	<path class="st4" d="M491.2,374.7v352.8c0,0,1.9,88.1,105.4,63.6"/>
</g>
</svg>
