<?xml version="1.0" encoding="utf-8"?>
<!-- Generator: Adobe Illustrator 26.5.3, SVG Export Plug-In . SVG Version: 6.00 Build 0)  -->
<svg version="1.1" id="圖層_1" xmlns="http://www.w3.org/2000/svg" xmlns:xlink="http://www.w3.org/1999/xlink" x="0px" y="0px"
	 viewBox="0 0 90 90" style="enable-background:new 0 0 90 90;" xml:space="preserve">
<style type="text/css">
	.st0{enable-background:new    ;}
	.st1{fill:#FFFFFF;}
</style>
<circle cx="154" cy="48" r="45"/>
<text transform="matrix(1 0 0 1 -221.7529 -33.4232)" class="st1" style="font-family:'NotoSans-BoldItalic'; font-size:69.0212px; letter-spacing:2;">Unit</text>
<g class="st0">
	<path class="st1" d="M32.8,13.6l-2.9,13.8c-0.6,2.6-1.6,4.5-3.2,5.8c-1.6,1.3-3.6,2-6.1,2c-2.1,0-3.7-0.6-4.9-1.7
		C14.6,32.4,14,31,14,29.1c0-0.7,0.1-1.4,0.2-2l2.9-13.4h4.4L18.7,27c-0.2,0.7-0.2,1.3-0.2,1.8c0,1.7,0.9,2.6,2.7,2.6
		c1.2,0,2.1-0.4,2.8-1.1s1.2-1.8,1.5-3.3l2.8-13.3H32.8z"/>
	<path class="st1" d="M48,34.9h-4.4l2-9.5c0.2-0.7,0.2-1.2,0.2-1.7c0-1.2-0.5-1.8-1.6-1.8c-0.9,0-1.7,0.6-2.4,1.7
		c-0.7,1.1-1.3,2.6-1.7,4.6l-1.4,6.7h-4.4l3.4-16.3h3.3l-0.3,3H41c1.4-2.2,3.1-3.3,5.1-3.3c1.3,0,2.4,0.4,3.1,1.2
		c0.7,0.8,1.1,2,1.1,3.5c0,0.7-0.1,1.6-0.3,2.6L48,34.9z"/>
	<path class="st1" d="M58,34.9h-4.4l3.4-16.3h4.4L58,34.9z M57.8,14.8c0-0.8,0.2-1.5,0.7-1.9c0.5-0.4,1.1-0.6,2-0.6
		c0.7,0,1.2,0.2,1.6,0.5c0.4,0.3,0.6,0.7,0.6,1.3c0,0.8-0.2,1.4-0.6,1.9c-0.4,0.5-1.1,0.7-2,0.7C58.5,16.6,57.8,16,57.8,14.8z"/>
	<path class="st1" d="M70.7,31.7c0.6,0,1.4-0.2,2.4-0.5v3.3c-1.1,0.5-2.4,0.8-3.9,0.8c-1.5,0-2.5-0.3-3.2-0.9c-0.7-0.6-1-1.6-1-2.8
		c0-0.5,0.1-1,0.2-1.6l1.7-7.8h-2.2l0.4-2.1l2.9-1.2l1.9-3.4h2.8l-0.7,3.5H76L75.3,22h-4.1l-1.7,7.8c-0.1,0.3-0.1,0.5-0.1,0.8
		C69.4,31.3,69.8,31.7,70.7,31.7z"/>
</g>
<text transform="matrix(1 0 0 1 -566.7142 143.248)" style="fill:#E60012; font-family:'NotoSans-BoldItalic'; font-size:53.7669px;">1</text>
<text transform="matrix(1 0 0 1 -534.7142 143.248)" style="fill:#E60012; font-family:'NotoSans-BoldItalic'; font-size:53.7669px;">2</text>
<text transform="matrix(1 0 0 1 -502.7143 143.248)" style="fill:#E60012; font-family:'NotoSans-BoldItalic'; font-size:53.7669px;">3</text>
<text transform="matrix(1 0 0 1 -470.7143 143.248)" style="fill:#E60012; font-family:'NotoSans-BoldItalic'; font-size:53.7669px;">4</text>
<text transform="matrix(1 0 0 1 -438.7143 143.248)" style="fill:#E60012; font-family:'NotoSans-BoldItalic'; font-size:53.7669px;">5</text>
<text transform="matrix(1 0 0 1 -406.7143 143.248)" style="fill:#E60012; font-family:'NotoSans-BoldItalic'; font-size:53.7669px;">6</text>
<text transform="matrix(1 0 0 1 -374.7144 143.248)" style="fill:#E60012; font-family:'NotoSans-BoldItalic'; font-size:53.7669px;">7</text>
<text transform="matrix(1 0 0 1 -342.7144 143.248)" style="fill:#E60012; font-family:'NotoSans-BoldItalic'; font-size:53.7669px;">8</text>
<text transform="matrix(1 0 0 1 -310.7144 143.248)" style="fill:#E60012; font-family:'NotoSans-BoldItalic'; font-size:53.7669px;">9</text>
<text transform="matrix(1 0 0 1 -275.8164 143.248)" style="fill:#E60012; font-family:'NotoSans-BoldItalic'; font-size:53.7669px;">10</text>
<text transform="matrix(1 0 0 1 -209.8758 143.248)" style="fill:#E60012; font-family:'NotoSans-BoldItalic'; font-size:53.7669px;">11</text>
<text transform="matrix(1 0 0 1 -148.2124 143.248)" style="fill:#E60012; font-family:'NotoSans-BoldItalic'; font-size:53.7669px;">12</text>
<text transform="matrix(1 0 0 1 -86.549 143.248)" style="fill:#E60012; font-family:'NotoSans-BoldItalic'; font-size:53.7669px;">13</text>
<g>
	<path class="st1" d="M-548.7,54.4h-8l4.7-21.8c0.6-2.7,1.3-5.2,2-7.5c-0.2,0.1-0.7,0.6-1.6,1.2c-0.9,0.7-3.2,2.2-6.9,4.5l-3.5-5.6
		l14.9-9.1h6.5L-548.7,54.4z"/>
</g>
<g>
	<path class="st1" d="M-510.7,54.4H-536l1.1-5.6l12.5-11.1c3.2-2.8,5.3-5,6.5-6.7c1.2-1.7,1.8-3.2,1.8-4.7c0-1.3-0.4-2.3-1.1-3
		c-0.7-0.7-1.7-1-2.9-1c-1.2,0-2.3,0.3-3.6,0.9c-1.2,0.6-2.7,1.6-4.5,3.1l-3.8-5.3c2.3-2,4.5-3.4,6.6-4.2c2.1-0.8,4.3-1.2,6.6-1.2
		c3.3,0,6,0.9,7.9,2.6c1.9,1.7,2.9,4,2.9,6.8c0,1.9-0.4,3.6-1.1,5.3c-0.7,1.6-1.8,3.3-3.2,4.9c-1.4,1.6-3.8,3.8-7,6.4l-7.1,5.8v0.3
		h14.9L-510.7,54.4z"/>
</g>
<g>
	<path class="st1" d="M-473.7,24.3c0,2.7-0.8,5-2.5,6.8c-1.6,1.8-3.9,3-6.9,3.5v0.2c2.3,0.5,4,1.4,5.2,2.8c1.2,1.4,1.8,3.2,1.8,5.3
		c0,2.3-0.6,4.4-1.9,6.2c-1.3,1.8-3.2,3.3-5.6,4.3c-2.4,1-5.3,1.5-8.6,1.5c-4.2,0-7.6-0.7-10.2-2.1v-7c1.5,0.9,3.1,1.5,4.8,2
		s3.4,0.7,5,0.7c2.8,0,4.9-0.6,6.4-1.7c1.5-1.1,2.2-2.7,2.2-4.6c0-3-2.3-4.5-6.8-4.5h-3.6l1.2-5.8h1.9c2.9,0,5.2-0.5,6.9-1.6
		c1.7-1.1,2.5-2.6,2.5-4.5c0-1.2-0.4-2.1-1.1-2.7c-0.8-0.6-1.8-1-3.2-1c-2.3,0-4.9,0.9-7.5,2.6l-3.3-5.4c2.2-1.4,4.2-2.4,6.1-3
		c1.9-0.6,4.1-0.9,6.5-0.9c3.3,0,5.9,0.8,7.8,2.4C-474.7,19.5-473.7,21.6-473.7,24.3z"/>
</g>
<g>
	<path class="st1" d="M-443.7,46.5h-4.5l-1.7,8h-7.7l1.7-8h-15.5l1.3-6.1l20.2-24.3h8.2l-5.1,24.1h4.5L-443.7,46.5z M-454.5,40.2
		l1.5-6.5c0.2-1,0.6-2.5,1.1-4.3c0.5-1.9,0.9-3.1,1.1-3.7h-0.3c-0.8,1.4-1.9,3-3.3,4.8l-8.2,9.8H-454.5z"/>
</g>
<g>
	<path class="st1" d="M-422.4,30.2c3.2,0,5.7,0.9,7.6,2.7c1.9,1.8,2.8,4.3,2.8,7.5c0,2.9-0.6,5.5-1.9,7.7c-1.3,2.2-3.1,3.9-5.5,5.1
		c-2.4,1.2-5.3,1.8-8.7,1.8c-2,0-4-0.2-5.7-0.6c-1.8-0.4-3.2-0.9-4.3-1.5v-7.1c3,1.7,6.1,2.6,9.2,2.6c2.7,0,4.8-0.6,6.3-1.9
		c1.5-1.2,2.3-2.9,2.3-5.1c0-1.6-0.5-2.9-1.5-3.7c-1-0.8-2.5-1.2-4.4-1.2c-1.8,0-3.6,0.3-5.6,0.9l-2.7-2l5.4-19.2h19.8l-1.4,6.9
		h-12.8l-2.3,7.7C-424.4,30.4-423.3,30.2-422.4,30.2z"/>
</g>
<g>
	<path class="st1" d="M-404.4,42.1c0-3.5,0.5-7,1.6-10.4c1.1-3.4,2.5-6.3,4.4-8.8c1.9-2.5,4.1-4.3,6.7-5.6c2.6-1.3,5.7-1.9,9.4-1.9
		c2.2,0,4.1,0.2,5.9,0.7l-1.3,6.5c-1.5-0.4-3.1-0.7-5-0.7c-3.5,0-6.3,1-8.4,2.9c-2.1,1.9-3.7,4.9-4.8,9h0.2c2-2.9,4.7-4.4,8.2-4.4
		c2.7,0,4.9,0.8,6.4,2.5c1.5,1.7,2.2,4.1,2.2,7.2c0,3-0.6,5.7-1.9,8.2c-1.2,2.5-2.9,4.4-5,5.7c-2.1,1.2-4.5,1.9-7.3,1.9
		c-3.7,0-6.5-1.1-8.4-3.3C-403.5,49.4-404.4,46.2-404.4,42.1z M-392.8,48.5c1.7,0,3.1-0.8,4.2-2.5c1.1-1.6,1.6-3.7,1.6-6.2
		c0-1.2-0.3-2.2-0.9-3s-1.5-1.1-2.7-1.1c-1.1,0-2.1,0.3-3,0.9c-1,0.6-1.7,1.5-2.3,2.5c-0.6,1-0.9,2.5-0.9,4.2c0,1.6,0.3,2.8,1,3.8
		S-394,48.5-392.8,48.5z"/>
</g>
<g>
	<path class="st1" d="M-372.7,54.4l19.3-31.6h-16.5l1.5-6.8h25.6l-1.1,5.1l-19.7,33.3H-372.7z"/>
</g>
<g>
	<path class="st1" d="M-323.8,15.4c2.2,0,4,0.4,5.7,1.1c1.6,0.7,2.9,1.8,3.7,3.1c0.8,1.3,1.3,2.9,1.3,4.6c0,2.3-0.7,4.4-2.1,6.1
		c-1.4,1.7-3.4,3.1-6.1,4c3.8,2.5,5.7,5.7,5.7,9.6c0,2.1-0.6,4-1.7,5.7s-2.7,3-4.8,3.9s-4.4,1.4-7.2,1.4c-3.7,0-6.7-0.9-8.8-2.6
		c-2.1-1.8-3.2-4.1-3.2-7.1c0-5.2,3-8.9,9.1-11.2c-2.9-2.3-4.3-4.9-4.3-7.8c0-2.1,0.5-3.9,1.5-5.6c1-1.6,2.5-2.9,4.4-3.8
		C-328.6,15.9-326.4,15.4-323.8,15.4z M-327.4,37.5c-2,0.8-3.5,1.7-4.5,2.8c-1,1.1-1.5,2.4-1.5,4c0,1.4,0.4,2.5,1.3,3.4
		c0.9,0.8,2.1,1.2,3.5,1.2c1.6,0,2.9-0.5,3.9-1.4s1.4-2.1,1.4-3.6c0-1.3-0.3-2.4-1-3.5C-324.9,39.5-326,38.5-327.4,37.5z
		 M-324.5,21.4c-1.3,0-2.4,0.4-3.2,1.2s-1.2,1.9-1.2,3.1c0,2.3,1.1,4.1,3.2,5.3c3.2-1.3,4.9-3.2,4.9-5.8c0-1.2-0.3-2.1-1-2.8
		S-323.4,21.4-324.5,21.4z"/>
</g>
<g>
	<path class="st1" d="M48.4,41.4c2.2,0,4,0.4,5.7,1.1c1.6,0.7,2.9,1.8,3.7,3.1c0.8,1.3,1.3,2.9,1.3,4.6c0,2.3-0.7,4.4-2.1,6.1
		c-1.4,1.7-3.4,3.1-6.1,4c3.8,2.5,5.7,5.7,5.7,9.6c0,2.1-0.6,4-1.7,5.7s-2.7,3-4.8,3.9s-4.4,1.4-7.2,1.4c-3.7,0-6.7-0.9-8.8-2.6
		c-2.1-1.8-3.2-4.1-3.2-7.1c0-5.2,3-8.9,9.1-11.2c-2.9-2.3-4.3-4.9-4.3-7.8c0-2.1,0.5-3.9,1.5-5.6c1-1.6,2.5-2.9,4.4-3.8
		C43.6,41.8,45.9,41.4,48.4,41.4z M44.8,63.5c-2,0.8-3.5,1.7-4.5,2.8c-1,1.1-1.5,2.4-1.5,4c0,1.4,0.4,2.5,1.3,3.4
		c0.9,0.8,2.1,1.2,3.5,1.2c1.6,0,2.9-0.5,3.9-1.4s1.4-2.1,1.4-3.6c0-1.3-0.3-2.4-1-3.5C47.3,65.4,46.2,64.4,44.8,63.5z M47.7,47.3
		c-1.3,0-2.4,0.4-3.2,1.2s-1.2,1.9-1.2,3.1c0,2.3,1.1,4.1,3.2,5.3c3.2-1.3,4.9-3.2,4.9-5.8c0-1.2-0.3-2.1-1-2.8S48.8,47.3,47.7,47.3
		z"/>
</g>
<g>
	<path class="st1" d="M-279.6,27.9c0,4.9-0.9,9.6-2.6,14c-1.7,4.4-4,7.7-6.9,9.7s-6.4,3.1-10.6,3.1c-2.2,0-4.3-0.3-6.3-0.8v-6.7
		c1.9,0.7,3.9,1.1,6,1.1c3,0,5.5-0.9,7.4-2.7s3.4-4.8,4.5-9h-0.2c-1.9,2.8-4.5,4.1-7.7,4.1c-2.9,0-5.1-0.9-6.6-2.7
		c-1.6-1.8-2.3-4.3-2.3-7.5c0-2.9,0.6-5.6,1.9-8c1.3-2.4,3-4.3,5.1-5.5c2.2-1.2,4.7-1.8,7.5-1.8c3.6,0,6.3,1.1,8.1,3.2
		C-280.5,20.5-279.6,23.7-279.6,27.9z M-291.3,21.7c-1.1,0-2.1,0.4-3,1.1c-0.9,0.7-1.6,1.7-2,3c-0.5,1.3-0.7,2.6-0.7,4
		c0,1.5,0.3,2.7,1,3.5c0.7,0.8,1.6,1.2,2.8,1.2c1.1,0,2-0.3,2.9-1c0.9-0.6,1.6-1.5,2.2-2.6c0.5-1.1,0.8-2.5,0.8-4.2
		c0-1.5-0.3-2.7-0.9-3.6C-289,22.1-290,21.7-291.3,21.7z"/>
</g>
<g>
	<path class="st1" d="M-259.1,54.2h-8l4.7-21.8c0.6-2.7,1.3-5.2,2-7.5c-0.2,0.1-0.7,0.6-1.6,1.2c-0.9,0.7-3.2,2.2-6.9,4.5l-3.5-5.6
		l14.9-9.1h6.5L-259.1,54.2z"/>
	<path class="st1" d="M-218.4,27.6c0,5.4-0.7,10.2-2.1,14.4c-1.4,4.2-3.4,7.4-5.9,9.5c-2.5,2.1-5.4,3.2-8.8,3.2
		c-3.5,0-6.1-1.1-7.9-3.2c-1.8-2.1-2.7-5.3-2.7-9.6c0-5.1,0.7-9.7,2.2-13.8c1.4-4.1,3.4-7.3,6-9.5c2.5-2.2,5.5-3.3,8.8-3.3
		C-221.9,15.2-218.4,19.3-218.4,27.6z M-229.6,21.8c-1.4,0-2.7,0.9-3.9,2.7s-2.2,4.5-3.1,7.9c-0.8,3.5-1.3,6.7-1.3,9.7
		c0,2,0.2,3.5,0.7,4.6c0.5,1,1.3,1.5,2.6,1.5c1.4,0,2.8-0.9,4-2.8c1.2-1.9,2.2-4.5,3-7.9c0.8-3.4,1.2-6.8,1.2-10.1
		c0-1.9-0.3-3.4-0.8-4.3C-227.7,22.2-228.5,21.8-229.6,21.8z"/>
</g>
<g>
	<path class="st1" d="M-191.8,54.4h-8l4.7-21.8c0.6-2.7,1.3-5.2,2-7.5c-0.2,0.1-0.7,0.6-1.6,1.2c-0.9,0.7-3.2,2.2-6.9,4.5l-3.5-5.6
		l14.9-9.1h6.5L-191.8,54.4z"/>
	<path class="st1" d="M-162.2,54.4h-8l4.7-21.8c0.6-2.7,1.3-5.2,2-7.5c-0.2,0.1-0.7,0.6-1.6,1.2c-0.9,0.7-3.2,2.2-6.9,4.5l-3.5-5.6
		l14.9-9.1h6.5L-162.2,54.4z"/>
</g>
<g>
	<path class="st1" d="M-130.1,54.4h-8l4.7-21.8c0.6-2.7,1.3-5.2,2-7.5c-0.2,0.1-0.7,0.6-1.6,1.2c-0.9,0.7-3.2,2.2-6.9,4.5l-3.5-5.6
		l14.9-9.1h6.5L-130.1,54.4z"/>
	<path class="st1" d="M-94.6,54.4h-25.3l1.1-5.6l12.5-11.1c3.2-2.8,5.3-5,6.5-6.7c1.2-1.7,1.8-3.2,1.8-4.7c0-1.3-0.4-2.3-1.1-3
		c-0.7-0.7-1.7-1-2.9-1c-1.2,0-2.3,0.3-3.6,0.9c-1.2,0.6-2.7,1.6-4.5,3.1l-3.8-5.3c2.3-2,4.5-3.4,6.6-4.2c2.1-0.8,4.3-1.2,6.6-1.2
		c3.3,0,6,0.9,7.9,2.6c1.9,1.7,2.9,4,2.9,6.8c0,1.9-0.4,3.6-1.1,5.3c-0.7,1.6-1.8,3.3-3.2,4.9c-1.4,1.6-3.8,3.8-7,6.4l-7.1,5.8v0.3
		h14.9L-94.6,54.4z"/>
</g>
<g>
	<path class="st1" d="M-63.8,54.1h-8l4.7-21.8c0.6-2.7,1.3-5.2,2-7.5c-0.2,0.1-0.7,0.6-1.6,1.2c-0.9,0.7-3.2,2.2-6.9,4.5l-3.5-5.6
		l14.9-9.1h6.5L-63.8,54.1z"/>
	<path class="st1" d="M-23.3,23.9c0,2.7-0.8,5-2.5,6.8c-1.6,1.8-3.9,3-6.9,3.5v0.2c2.3,0.5,4,1.4,5.2,2.8c1.2,1.4,1.8,3.2,1.8,5.3
		c0,2.3-0.6,4.4-1.9,6.2c-1.3,1.8-3.2,3.3-5.6,4.3c-2.4,1-5.3,1.5-8.6,1.5c-4.2,0-7.6-0.7-10.2-2.1v-7c1.5,0.9,3.1,1.5,4.8,2
		s3.4,0.7,5,0.7c2.8,0,4.9-0.6,6.4-1.7c1.5-1.1,2.2-2.7,2.2-4.6c0-3-2.3-4.5-6.8-4.5h-3.6l1.2-5.8h1.9c2.9,0,5.2-0.5,6.9-1.6
		c1.7-1.1,2.5-2.6,2.5-4.5c0-1.2-0.4-2.1-1.1-2.7c-0.8-0.6-1.8-1-3.2-1c-2.3,0-4.9,0.9-7.5,2.6l-3.3-5.4c2.2-1.4,4.2-2.4,6.1-3
		c1.9-0.6,4.1-0.9,6.5-0.9c3.3,0,5.9,0.8,7.8,2.4C-24.2,19.1-23.3,21.3-23.3,23.9z"/>
</g>
</svg>
