<?xml version="1.0" encoding="utf-8"?>
<!-- Generator: Adobe Illustrator 26.5.3, SVG Export Plug-In . SVG Version: 6.00 Build 0)  -->
<svg version="1.1" id="圖層_1" xmlns="http://www.w3.org/2000/svg" xmlns:xlink="http://www.w3.org/1999/xlink" x="0px" y="0px"
	 viewBox="0 0 6 500" style="enable-background:new 0 0 6 500;" xml:space="preserve">
<style type="text/css">
	.st0{fill:#CB8857;}
</style>
<g>
	<path class="st0" d="M0.6,245.6C0.5,238.3,0.5,131,0.4,123.7c0.4,19.2,1.1,138.3,1,157.6C1.3,293.2,1,304.7,1,316.8
		c0,13.8,0.5,27.7,0.9,41.4c0.3,12.9,0.8,25.5,1.2,38.3c0.4,12.9,0.4,26.6,0.5,39.6c0.1,13.3-0.3,26.5-0.3,39.8
		c0,6.6,0,13.3-0.3,19.9c0,0.4-0.1,2.1-0.2,4.3c-0.1,0-0.1,0-0.2,0c0.1-2.4,0.1-4.4,0.2-4.8C3,488.7,3,482,3,475.3
		c0-13.4,0.4-26.6,0.2-40c-0.2-13-0.1-26.6-0.5-39.5c-0.5-13.8-1-27.4-1.3-41.4c-0.3-13.2-0.7-26.4-0.7-39.7c0-11.8,0.4-23,0.4-34.7
		c0-10.9-0.3-21.7-0.6-32.4C0.6,246.9,0.6,246.3,0.6,245.6z"/>
	<path class="st0" d="M0.6,32.3c0,1.5,1.1,24.9,1.2,26.5c0.4,16.6,0.8,32.7,0.5,49.4c-0.1,7.8-0.1,15,0.1,22.7
		c0.2,8.3,0.1,116.7,0.2,125c0.1,8.3,0.4,16.5,0.4,24.8c0,9-0.1,18-0.1,27.1c0.1,34,1.3,67.3,1.9,101c0.3,16.7,0.2,34.1,0.1,50.8
		c-0.1,13.8-0.3,29.1-1.1,42.3l0,0c0.7-12.9,0.8-27.9,0.9-41c0.2-16.8,0.2-34.4-0.1-51.1c-0.6-33.8-1.8-67-2-101
		c-0.1-15.6,0.1-30.8-0.2-46.4c-0.2-8.6,0-117.4-0.1-126c-0.1-8.2-0.4-16.1-0.3-24.3c0.1-17,0-33.1-0.4-49.9
		C1.5,59.5,0.4,35,0.4,32.3C0.4,32.2,0.5,32.3,0.6,32.3z"/>
	<path class="st0" d="M4.6,366.4c-0.4-16.9-0.7-33.7-0.6-50.7c0.1-16.9,0.4-33.9,0.4-50.8c0-7.9,0-15.9-0.2-23.7
		C4,233.5,3.8,79.3,3.7,71.5L4,65.7"/>
</g>
<g>
	<path class="st0" d="M2.7,4.6c0,3.6,1.2,23.4,1.2,27c0,7-0.2,13.9-0.2,20.9c0,7.2-0.2,12.1,0,19.3c0,0.1,0.3-1.9,0.3-2
		c0.1-4,0.2-3.8,0.1-7.7c-0.1-3.8,0-7.7,0-11.5c0-7.7,0.1-15.5,0.1-23.2"/>
	<path class="st0" d="M1.4,19.9L1.4,19.9"/>
</g>
<path class="st0" d="M2,73.9C2,67.9,1.9,62,1.9,56c0-11.4,0.4-23.1,0.1-34.4c0-0.1,0,0.1,0,0.2c0.4,11.6,0.1,23.3,0.1,35
	c0,5.6,0.1,11.2,0.1,16.9c0.1,5.6-0.1,11.5-0.3,17c0,0.4-0.1-0.2-0.1-0.4C1.7,84.8,2,79.4,2,73.9z"/>
</svg>
