<?xml version="1.0" encoding="utf-8"?>
<!-- Generator: Adobe Illustrator 26.5.3, SVG Export Plug-In . SVG Version: 6.00 Build 0)  -->
<svg version="1.1" id="圖層_1" xmlns="http://www.w3.org/2000/svg" xmlns:xlink="http://www.w3.org/1999/xlink" x="0px" y="0px"
	 viewBox="0 0 6 500" style="enable-background:new 0 0 6 500;" xml:space="preserve">
<style type="text/css">
	.st0{fill:#CB8857;}
</style>
<g>
	<path class="st0" d="M5.1,123.6c0,0.2,0.1,0.8,0.1,0.4c0.2-5.5,0.4-11.4,0.3-17c0-5.7-0.1-11.3-0.1-16.9c0-11.7,0.3-23.4-0.1-35
		c0-0.1-0.1-0.3-0.1-0.2c0.3,11.3-0.1,23-0.1,34.4c0,6,0.1,11.9,0.1,17.9C5.2,112.7,4.9,118.1,5.1,123.6z"/>
	<path class="st0" d="M2.4,1.8c-0.1,1-0.6,5.5-0.6,6.5c-0.1,2.8-0.3,3.7-0.4,6.5c-0.1,5.5-0.3,10.3-0.3,15.7
		c0,11.1,0.9,21.4,1.2,32.7c0.2,5.5,0.1,11,0,16.5C2,85.6,2,91.1,2.1,96.8c-0.5,19.4-0.2,43.2-0.2,47.7C2,159.1,2,261.4,2.3,276
		c0.2,13.4,0.5,27.1,0.6,40.6c0.1,14.6-0.3,29.3-0.7,43.7c-0.4,13.6-0.6,27.2-0.7,40.9c-0.1,5.5-0.5,54-0.6,74.7l0.1-0.1
		c0.1-21.5,0.6-73.3,0.7-79.2c0.1-14.7,0.4-29.2,0.8-43.7c0.4-14.4,0.7-28.9,0.4-43.3C2.3,281.1,2,164.1,2,135.3L2.3,97
		C2.5,86.6,2.9,76.3,3,66c0.3-10.2-0.4-24.2-0.4-34.1c0-5.1,0-4.2,0-9.3S2.2,12,2.6,6.9C2.7,5.9,2.4,2.8,2.4,1.8"/>
	<path class="st0" d="M0.6,99.5c-0.2,7.6-0.2,15.2-0.2,23c0,10.4-0.1,20.7,0,31.1C0.5,163,0.8,253.4,1,262.7
		c0.5,20.2,1.3,41.6,0.6,61.9c-0.4,10.7-1.2,21-1.2,31.8c-0.1,10.7-0.2,21.5-0.4,32.2c0.1-10.4,0.5-21.3,0.5-31.9
		c0-9.9,0.7-19.2,1.1-28.9c0.9-20.2,0.2-41.6-0.3-61.9C1,255.5,0.7,164,0.7,153.6c-0.1-10.3,0-20.7,0-31c0-1.8,0-12.9,0.2-23.7
		C0.8,99.1,0.7,99.2,0.6,99.5z"/>
	<path class="st0" d="M2.8,409.4c0,2.8,0.2,5.5,0.3,8.1c0.3,5.3,0.6,10.6,0.7,16c0.2,10.2,0.2,20,0.3,30.4c-0.1,11-0.4,22-0.8,32.8
		c0,0.2-0.1,0.6-0.1,1.2c0,0.7,0,1.4,0,2.1c0.1-2.5,0.2-4.4,0.2-5c0.4-9.4,0.6-19,0.8-28.4c0.1-11,0.2-21.5-0.1-32.4
		c-0.2-9.3-0.9-18.2-1-27.5c0,0.3,0,1.5,0,1.9c0-0.2,0-0.8,0-1.9C3,404,2.8,410.2,2.8,409.4z"/>
</g>
</svg>
