<?xml version="1.0" encoding="utf-8"?>
<!-- Generator: Adobe Illustrator 26.5.3, SVG Export Plug-In . SVG Version: 6.00 Build 0)  -->
<svg version="1.1" id="圖層_1" xmlns="http://www.w3.org/2000/svg" xmlns:xlink="http://www.w3.org/1999/xlink" x="0px" y="0px"
	 viewBox="0 0 500 6" style="enable-background:new 0 0 500 6;" xml:space="preserve">
<style type="text/css">
	.st0{fill:#CB8857;}
</style>
<path class="st0" d="M386.3,4c17.6,0.1,35-0.2,52.4-0.6L130.3,4c-2.5-0.1-2.8-0.2-6.3-0.1c-4,0.1-7.9,0-11.9,0c-8,0-16-0.1-24-0.1
	c-3.9,0-7.8,0.1-11.7,0.2c-2,0-9.3-0.1-11.3,0c-0.7,0-1.2,0.3-1.9,0.4c-0.6,0.1-1.4-0.1-1.9,0.1c0.3-0.1,1.3,0.2,1.6,0.2
	c0.8,0,2,0,2.8-0.1c3.7-0.3,11.8-0.2,15.5-0.2c3.7,0,7.4-0.1,11.1-0.1c7.2,0,14.4,0.2,21.6,0.2c7.3,0,12.3,0.2,19.5,0l0.3,0
	c8.1-0.1,167.6-0.3,175.6-0.5c8.1-0.2,16.4-0.2,24.5-0.2C351.3,3.6,368.8,4,386.3,4z"/>
<path class="st0" d="M402,1.9c-34.9,0.6-69.4-1.2-104.5-1.1c-9.3,0-18.7-0.1-28-0.1c-8.6,0-17,0.3-25.6,0.4
	c-8.6,0.1-120.7-0.1-129.2,0.2c-8,0.2-15.4,0.3-23.5,0.1c-7.7-0.1-15.3-0.1-23,0c-4.2-0.1-8.5,0-12.8,0c-5.8,0.1-11.6,0.1-17.4,0.1
	C26,1.6,13.9,1.3,1.9,1.6c-0.1,0-0.3,0.1-0.2,0.1c11.7-0.3,23.8,0.1,35.5,0.1c4,0,7.9,0,11.9-0.1c-3,0.1-6,0.1-9,0.2
	c-1.6,0-25.8,1.1-27.4,1.2c0,0.1-0.6,0.1-0.6,0.2c2.8-0.1,28.8-1.2,31.5-1.2c6.9-0.2,13.7-0.3,20.5-0.3c2.9,0,5.8,0,8.6,0
	c0,0,0.1,0,0.1,0c7.4,0,14.8,0,22.3,0.1c8.5,0.1,16.7-0.2,25.1-0.3c8.9-0.1,121.4,0,130.3-0.1c16.2-0.3,31.8-0.1,48-0.2
	c35.1-0.2,69.5,1.6,104.4,1c17.4-0.3,35.5-0.3,52.9-0.1c13.5,0.1,29,0.2,42.4,0.9v0c-13.7-0.8-29.5-1-43.7-1.1
	C437.3,1.6,419.3,1.5,402,1.9z"/>
</svg>
