<?xml version="1.0" encoding="utf-8"?>
<!-- Generator: Adobe Illustrator 26.5.3, SVG Export Plug-In . SVG Version: 6.00 Build 0)  -->
<svg version="1.1" id="圖層_1" xmlns="http://www.w3.org/2000/svg" xmlns:xlink="http://www.w3.org/1999/xlink" x="0px" y="0px"
	 viewBox="0 0 60 60" style="enable-background:new 0 0 60 60;" xml:space="preserve">
<style type="text/css">
	.st0{fill:#3EA07E;}
	.st1{fill:#FFFFFF;}
</style>
<circle class="st0" cx="30" cy="30" r="30"/>
<g>
	<path class="st1" d="M29.9,48.6c-7.8,0-15-4.6-18.2-11.8c-0.7-1.5,0-3.3,1.5-4c1.5-0.7,3.3,0,4,1.5c2.3,5,7.2,8.2,12.7,8.2
		c5.6,0,10.7-3.3,12.9-8.5c0.6-1.5,2.4-2.3,4-1.6c1.5,0.7,2.3,2.4,1.6,4C45.2,43.8,38,48.6,29.9,48.6z"/>
	<g>
		<circle class="st1" cx="19.8" cy="20.7" r="6"/>
		<circle class="st1" cx="40.2" cy="20.7" r="6"/>
	</g>
</g>
</svg>
