<?xml version="1.0" encoding="UTF-8"?>
<svg xmlns="http://www.w3.org/2000/svg" version="1.1" viewBox="0 0 60 60">
  <defs>
    <style>
      .cls-1 {
        fill: #fff;
      }
    </style>
  </defs>
  <!-- Generator: Adobe Illustrator 28.7.2, SVG Export Plug-In . SVG Version: 1.2.0 Build 154)  -->
  <g>
    <g id="_圖層_1" data-name="圖層_1">
      <path class="cls-1" d="M48.4,10.8c5.6,4.5,9.1,11.5,9.1,19.2s-3.6,14.7-9.1,19.2c-.9.7-2.2.6-2.9-.3s-.6-2.2.3-2.9c4.7-3.8,7.6-9.5,7.6-16s-3-12.2-7.6-16c-.9-.7-1-2-.3-2.9s2-1,2.9-.3h0ZM43.2,17.2c3.7,3,6.1,7.6,6.1,12.8s-2.4,9.8-6.1,12.8c-.9.7-2.2.6-2.9-.3s-.6-2.2.3-2.9c2.8-2.3,4.6-5.7,4.6-9.6s-1.8-7.3-4.6-9.6c-.9-.7-1-2-.3-2.9s2-1,2.9-.3h0ZM38,23.6c1.8,1.5,3,3.8,3,6.4s-1.2,4.9-3,6.4c-.9.7-2.2.6-2.9-.3s-.6-2.2.3-2.9c.9-.8,1.5-1.9,1.5-3.2s-.6-2.4-1.5-3.2c-.9-.7-1-2-.3-2.9s2-1,2.9-.3h0ZM28.4,11c1,.4,1.6,1.4,1.6,2.5v33c0,1.1-.6,2.1-1.6,2.5s-2.1.3-3-.5l-11.6-10.3h-5.8c-3,0-5.5-2.5-5.5-5.5v-5.5c0-3,2.5-5.5,5.5-5.5h5.8l11.6-10.3c.8-.7,2-.9,3-.5Z"/>
    </g>
  </g>
</svg>