<?xml version="1.0" encoding="utf-8"?>
<!-- Generator: Adobe Illustrator 26.5.3, SVG Export Plug-In . SVG Version: 6.00 Build 0)  -->
<svg version="1.1" id="圖層_1" xmlns="http://www.w3.org/2000/svg" xmlns:xlink="http://www.w3.org/1999/xlink" x="0px" y="0px"
	 viewBox="0 0 60 60" style="enable-background:new 0 0 60 60;" xml:space="preserve">
<style type="text/css">
	.st0{fill:#D5665C;}
	.st1{fill:#FFFFFF;}
</style>
<circle class="st0" cx="30" cy="30" r="30"/>
<g>
	<path class="st1" d="M14.4,46.4c-0.4,0-0.8-0.1-1.2-0.2c-1.5-0.7-2.3-2.4-1.6-4C14.8,34.8,22,30,30.1,30c7.8,0,15,4.6,18.2,11.8
		c0.7,1.5,0,3.3-1.5,4c-1.5,0.7-3.3,0-4-1.5c-2.3-5-7.2-8.2-12.7-8.2c-5.6,0-10.7,3.3-12.9,8.5C16.7,45.7,15.6,46.4,14.4,46.4z"/>
	<g>
		<circle class="st1" cx="19.8" cy="18.5" r="6"/>
		<circle class="st1" cx="40.2" cy="18.5" r="6"/>
	</g>
</g>
</svg>
