<?xml version="1.0" encoding="utf-8"?>
<!-- Generator: Adobe Illustrator 26.3.1, SVG Export Plug-In . SVG Version: 6.00 Build 0)  -->
<svg version="1.1" id="圖層_1" xmlns="http://www.w3.org/2000/svg" xmlns:xlink="http://www.w3.org/1999/xlink" x="0px" y="0px"
	 viewBox="0 0 350 350" style="enable-background:new 0 0 350 350;" xml:space="preserve">
<style type="text/css">
	.st0{fill:#A8A296;}
	.st1{fill:#3C413B;}
	.st2{fill:#F39941;}
	.st3{fill:#713D1E;}
	.st4{fill:#A8A296;stroke:#3C413B;stroke-width:1.5;stroke-linecap:round;stroke-linejoin:round;stroke-miterlimit:10;}
	.st5{fill:#D17E34;stroke:#3C413B;stroke-width:2.25;stroke-linecap:round;stroke-linejoin:round;stroke-miterlimit:10;}
</style>
<g>
	<g>
		<path class="st0" d="M29.4,165.6c0,0-32.4-82.5-29.2-149.8c0,0,166-6.8,343.2-0.7h6.6c-5.8,109.8-25,150.4-25,150.4H29.4z"/>
		<path class="st1" d="M29.1,166.2c-0.2-0.1-0.4-0.5-0.4-0.6c0,0-0.1-0.3-0.1-0.3s-0.2-0.6-0.2-0.6s-0.4-1.1-0.4-1.1
			c-0.6-1.4-1.9-5.3-2.5-6.8C11.9,117.5,1.4,76.7-0.7,35c-0.2-6.4-0.3-12.8,0-19.3c0-0.5,0.4-0.8,0.9-0.9c102-3.7,204.1-4.3,306.1-2
			c14.3,0.2,29.4,1.1,43.7,1.1c0.6,0,1.1,0.5,1.1,1.1c-2.2,38-5.9,76.9-14.2,114c-2.9,12.5-6,25-11,36.8
			C325.9,167.9,29.8,165.4,29.1,166.2L29.1,166.2z M29.9,165c-0.1,0.1,298.3-1.1,294.3,0.2c4.9-11.6,8-24.1,10.8-36.4
			c6.9-30.9,10.4-63,12.8-94.6c0,0,1.2-19.1,1.2-19.1l1.1,1.2c-29.1-0.4-58.4-1.7-87.5-2c-87.4-1.3-174.9-0.6-262.3,2.4
			c0,0,0.9-0.9,0.9-0.9c-0.3,6.4-0.3,12.7,0,19.1C3.4,79.5,14.7,123.2,29.9,165L29.9,165z"/>
	</g>
	<g>
		<path class="st2" d="M21.8,39.1c0,0,2.4,75.7,25.5,114.3h257.1c0,0,23.3-69.7,20.2-116.1C324.6,37.3,63.8,29.6,21.8,39.1z"/>
		<g>
			<path class="st1" d="M22.1,39.5c0,0,0.2,0,0.2,0c0.1,0,0.2-0.2,0.1-0.2c0,0.3,0,1.2,0.1,1.6c1.3,23.9,4.3,47.8,10,71
				c3.5,14.2,8.2,28.4,15.6,41c-4.2-1.1,257.3-0.3,256.4-0.6c0,0-1,0.8-1,0.8c6-18.7,11-37.9,14.8-57.2c3.7-19.2,6.5-38.9,5.4-58.5
				c0,0,1,1,1,1c-50.5-1.5-101-2.5-151.5-3c-44.2-0.2-88.4-0.8-132.5,2.1c-5.5,0.4-11,0.9-16.4,1.9C23.5,39.4,22.9,39.5,22.1,39.5
				L22.1,39.5z M21.3,38.6c6.2-1.7,12.8-2,19.2-2.6c44.1-3,88.4-2.5,132.6-2.4c50.5,0.4,101,1.3,151.5,2.6c0.5,0,1,0.4,1,1
				c1.2,19.9-1.6,39.7-5.3,59.1c-3.8,19.4-8.8,38.6-14.9,57.4c-0.2,0.5-0.6,0.8-1,0.8c-0.8-0.4-257.5,0.6-257.9-0.6
				C39,141,34.4,126.7,30.9,112.3c-5.5-22.8-8.3-46.1-9.6-69.5c0,0-0.1-1.8-0.1-1.8l0-0.9c0,0,0-0.5,0-0.5
				C21.1,39.3,21.1,38.9,21.3,38.6L21.3,38.6z"/>
		</g>
	</g>
	<g>
		<path class="st0" d="M350,231l-23.7,104.7c-1.8,8.3-9.6,14.3-18.6,14.3H43.4c-9.3,0-17.3-6.1-19.1-14.6L1.7,229.1L350,231z"/>
		<path class="st1" d="M350.5,230.6c-5.8,26.4-17.7,80.2-23.5,106c-2.1,8.6-10.8,14.6-19.5,14.3c-74.9,0-187.8,0.2-261.7,0.2
			c-10.5,0.8-20.7-5.4-22.7-16.1c-1.1-5.3-7.4-34.7-8.6-40.6c0,0-13.8-65-13.8-65C0,225.6,349.5,231.8,350.5,230.6L350.5,230.6z
			 M349.5,231.4c0,0-347.8-1.3-347.8-1.3c0,0,1-1.2,1-1.2c5.6,26.2,17.1,80,22.5,105.6c1.7,9.6,11.2,15.3,20.6,14.4
			c73.5,0.1,187.2,0.1,261.7,0.2c8,0.2,15.9-5.1,17.8-13C331.1,310.9,343.5,257.1,349.5,231.4L349.5,231.4z"/>
	</g>
	<g>
		<path class="st2" d="M306.9,330.4c13.5-25.3,17.4-80.8,17.4-80.8H33.2c0,0,4.6,39.3,18.4,80.1c1,3.1,4.3,5.2,8,5.2h239.2
			C302.3,334.9,305.5,333.1,306.9,330.4z"/>
		<g>
			<path class="st1" d="M306.4,330.1c6.2-12.3,9.2-26,11.8-39.5c2.5-13.6,4.2-27.4,5.3-41.1c5.4,2.4-291.5,0.4-290.3,1.2
				c0,0,1.1-1.2,1.1-1.2c2.8,21.1,7.1,42,12.9,62.5c1.3,4.9,3.1,10.4,4.6,15.3c0.5,1.6,0.8,3.2,2,4.4c1.1,1.1,2.5,1.9,4.1,2.2
				c0.8,0.2,1.5,0.2,2.5,0.2c0,0,2.7,0,2.7,0s10.7,0,10.7,0c13.4,0,50.2,0.1,64,0.1c39.4,0,110.7,0.2,149.4,0.2c0,0,10.7,0,10.7,0
				C301.3,334.5,304.7,332.9,306.4,330.1L306.4,330.1z M307.6,330.7c-1.8,3.5-5.9,5.1-9.7,4.9c0,0-10.7,0-10.7,0
				c-38.4,0-110.3,0.1-149.4,0.2c-13.9,0-50.5,0.1-64,0.1c0,0-10.7,0-10.7,0s-2.7,0-2.7,0c-0.8,0-1.9,0-2.8-0.2
				c-1.9-0.4-3.8-1.3-5.2-2.8c-1.4-1.4-2-3.4-2.5-5.1c-1.5-4.9-3.4-10.4-4.7-15.3c-3.9-13.7-7.1-27.6-9.7-41.7
				c-1.3-7-2.5-14-3.4-21.1c-0.1-0.6,0.4-1.2,1-1.2c1,0.9,292.3-1.5,292.2,1.2c-1.2,13.9-2.9,27.6-5.5,41.3
				C317,304.5,313.7,318.3,307.6,330.7L307.6,330.7z"/>
		</g>
	</g>
	<g>
		<path class="st0" d="M0.2,229.1c0,0,20.1-39.1,29.2-63.5H325c4.4,18.3,25,65.4,25,65.4L0.2,229.1z"/>
		<path class="st1" d="M-0.3,229.3c-0.1-0.5,0.2-1.1,0.5-1.5c0,0,0.5-1,0.5-1c4.7-9.6,9.6-19.9,14.1-29.5c4.9-10.6,9.6-21.2,13.8-32
			c0.1-0.4,0.5-0.6,0.9-0.6c35.4,0.1,94.6,0.6,129.3,0c12.5-0.1,78.6,0.1,92.4,0.1c24.6,0.1,49.3,0.2,73.9,0.1
			c0.3,0,0.6,0.2,0.7,0.5c3,11.2,7.3,22.1,11.5,32.9c4.3,10.8,8.8,21.6,13.4,32.3c0.2,0.5-0.2,1.1-0.7,1.1
			c-47.5-0.1-105.8-0.8-153.3-1.1C137,230.2,58.8,230.4-0.3,229.3L-0.3,229.3z M0.7,228.8c68.2-0.4,150.1,0.9,218.3,1
			c38.9,0.1,92.1,0.2,131,0.5c0,0-0.7,1.1-0.7,1.1c-4.6-10.7-9.1-21.5-13.4-32.4c-4.2-10.9-8.6-21.8-11.5-33.2c0,0,0.7,0.5,0.7,0.5
			c-50.2-0.2-115.7,0.4-166.3,0.2c-34.4-0.8-94.3,0-129.3,0c0,0,0.9-0.6,0.9-0.6c-4.2,10.9-9,21.6-14,32.1
			c-4.6,9.7-9.7,19.9-14.6,29.4c0,0-0.5,1-0.5,1S1,228.8,1,228.8C0.9,228.9,0.9,228.7,0.7,228.8L0.7,228.8z"/>
	</g>
	<g>
		<path class="st3" d="M15.3,222c0,0,18.3-29.6,26.6-48.1h269.5c4,13.9,22.8,49.6,22.8,49.6L15.3,222z"/>
		<g>
			<path class="st1" d="M14.8,222.3c-0.1-0.5,0.2-0.9,0.5-1.3c0,0,0.4-0.7,0.4-0.7c8.9-15.3,18-30.7,25.4-46.7
				c0.2-0.3,0.5-0.6,0.9-0.6c27.9-0.1,56.3,0.3,84.2,0.3c31.5-0.3,85.8-0.5,117.9-0.2c22.5,0.1,44.9,0.2,67.4,0.1
				c0.3,0,0.6,0.2,0.7,0.5c5.9,17.1,14.6,33.3,22.8,49.4c0.3,0.5-0.1,1.2-0.7,1.1c-26.6-0.1-53.3-0.1-79.9-0.4
				C180.3,222.9,88.1,223.4,14.8,222.3L14.8,222.3z M15.8,221.7c103.1-0.1,215.5,0.8,318.4,1c0,0-0.7,1.2-0.7,1.2
				c-8.2-16.3-16.9-32.4-22.7-49.8c0,0,0.7,0.5,0.7,0.5c-22.5-0.1-44.9,0.1-67.4,0.1c-32.4,0.3-86.2,0-117.9-0.2
				c-27.9,0-56.4,0.4-84.2,0.3c0,0,0.9-0.6,0.9-0.6c-7.3,15.6-16.1,30.5-25.2,45.1c0,0-0.9,1.5-0.9,1.5s-0.5,0.7-0.5,0.7
				s-0.2,0.4-0.2,0.4c0,0.1,0,0,0-0.1C15.9,221.8,15.8,221.7,15.8,221.7L15.8,221.7z"/>
		</g>
	</g>
	<path class="st4" d="M350,15.2l-11.4-9.5c0,0-152.4-12.7-321.1,0L0.2,15.8L350,15.2z"/>
	<path class="st5" d="M279.6,38.7l42.8,1c0,0,2.5,51.3-19.6,112.3H274C274,152.1,305.2,101.1,279.6,38.7z"/>
	<path class="st5" d="M57.7,37.5c-17.4,68.1,21,114.5,21,114.5H48.6C26.9,119.6,23.3,40.7,23.3,40.7s12.8-2.4,33.8-3.2"/>
	<path class="st5" d="M271.9,335h22c3.5,0,6.3-0.7,8.1-4.4c12.5-24.8,17.4-77.9,17.4-77.9h-31.3C288.2,252.8,300.8,288.2,271.9,335z
		"/>
	<path class="st5" d="M89.4,334.3l-30.6-0.1c-7.2,0.5-8-1.8-9-4.8c-13.7-38.7-17.5-76.3-17.5-76.3h34.4
		C66.6,253.2,53.3,297.5,89.4,334.3z"/>
	<g>
		<path class="st1" d="M318.1,267.4c-94.6,4.8-190.6,4.8-285.4,2.8c-0.3,0-0.6-0.3-0.6-0.6c0-0.3,0.3-0.6,0.6-0.6
			c0,0,71.3,0.5,71.3,0.5c59.3,0.2,119-0.2,178.3-2.1c8.8-0.3,26.8-0.9,35.6-1.2c0.3,0,0.6,0.2,0.6,0.5
			C318.7,267.1,318.4,267.4,318.1,267.4L318.1,267.4z"/>
	</g>
	<g>
		<path class="st0" d="M208.7,252.8l-3,12.7c-1.5,6.2-7.3,10.6-14.1,10.6h-33.8c-7.3,0-13.5-4.9-14.7-11.7l-2.1-11.6"/>
		<path class="st1" d="M209.3,252.9l-2.6,12c-0.4,2-1.2,4.2-2.5,5.9c-3.2,4.5-8.8,6.6-14.2,6.3c0,0-3.1,0-3.1,0
			c-8.9,0-21.8,0.2-30.7-0.1c-6.5-0.6-12.6-5.5-13.9-12c-0.7-4.1-1.3-8.1-2-12.1c-0.1-0.4,0.2-0.7,0.6-0.8c0.4-0.1,0.7,0.2,0.8,0.6
			c0.8,4,1.6,8,2.4,12c1.5,6.9,8.5,10.9,15.2,10.3c1.9,0,13.1,0,15.3,0c2.2,0,13.3,0.1,15.3,0.1c6.9,0.5,13.7-3.4,15.1-10.5
			c0,0,3-11.9,3-11.9C208.2,251.8,209.5,252.1,209.3,252.9L209.3,252.9z"/>
	</g>
	<path class="st1" d="M171.7,263.5c0,0-5.1-2.6-1.6-6.5c3.5-3.9,12.9,2.3,5.5,6.4l3.2,6.9c0,0-6,0.7-10.4-0.3L171.7,263.5z"/>
	<g>
		<path class="st1" d="M341.1,24.7c0.3,18.1-1.2,36.3-4.7,54.1c-0.1,0.5-0.8,0.4-0.8-0.1c2-13.4,3.5-26.9,4.2-40.4
			c0.2-4.5,0.4-9,0.5-13.5C340.4,24.2,341.1,24.2,341.1,24.7L341.1,24.7z"/>
	</g>
	<g>
		<path class="st1" d="M334.3,87.9c-0.4,0.1-0.7-0.4-0.5-0.7c0.4-0.8,1.3-0.2,1.2,0.6c-0.1,0.8-0.3,3-0.4,3.8
			c-1.4,11.8-3.2,23.8-7.4,35.1c-0.2,0.4-0.9,0.2-0.7-0.3c4-12.5,5.7-25.7,7.7-38.7c0-0.2,0-0.2,0-0.2c0.1,0,0.2,0,0.2-0.2
			c0-0.1-0.2-0.2-0.3-0.2C334.6,87.1,334.8,87.8,334.3,87.9L334.3,87.9z"/>
	</g>
	<g>
		<path class="st1" d="M7,25.8c1.6,28.7,5.5,57.3,11.6,85.4c0,0,1.2,5.6,1.2,5.6c0,0.2-0.1,0.4-0.3,0.5c-0.2,0-0.4-0.1-0.5-0.3
			c0,0-1.4-5.6-1.4-5.6C12.5,89,9,66.1,7.2,43.1C7,40.3,6.6,34.5,6.5,31.6c0,0-0.2-5.8-0.2-5.8c0-0.2,0.1-0.4,0.3-0.4
			C6.8,25.5,7,25.6,7,25.8L7,25.8z"/>
	</g>
	<g>
		<path class="st1" d="M21.6,121.3c0.3,2,0.8,4.2,1.2,6.3c0,0,0.5,2.1,0.5,2.1c0,0.2-0.1,0.4-0.3,0.5c-0.2,0-0.4,0-0.4-0.2
			c-0.7-1.3-1.1-2.7-1.4-4.2c-0.3-1.4-0.4-2.9-0.3-4.4c0-0.2,0.2-0.3,0.4-0.3C21.4,121,21.6,121.1,21.6,121.3L21.6,121.3z"/>
	</g>
	<g>
		<path class="st1" d="M25.2,134.6c1,3.3,2.1,7.1,3.1,10.4c0.3,1.2,0.7,2.3,1,3.5c0.1,0.2-0.1,0.4-0.3,0.5c-0.2,0-0.4,0-0.5-0.2
			c-2-4.5-3.3-9.2-4-14C24.4,134.4,25.1,134.2,25.2,134.6L25.2,134.6z"/>
	</g>
	<g>
		<path class="st1" d="M12.9,24.9c35.5-2.9,73.2-2.2,108.9-3.3c0.2,0,0.4,0.2,0.4,0.4c0,0.2-0.2,0.4-0.4,0.4
			c-26,1.2-55.6,1.2-81.7,2C31.1,24.6,22,25,13,25.6c-0.2,0-0.4-0.1-0.4-0.3C12.6,25,12.7,24.9,12.9,24.9L12.9,24.9z"/>
	</g>
	<g>
		<path class="st1" d="M334.4,23.3c-25.4,0.5-53.8,0.7-79.2,0.5c-0.2,0-0.4-0.2-0.4-0.4c0-0.2,0.2-0.4,0.4-0.4
			c18.1-0.4,41.2-0.5,59.4-0.5c4.9,0,14.9,0,19.8,0c0.2,0,0.4,0.2,0.4,0.4C334.7,23.1,334.6,23.3,334.4,23.3L334.4,23.3z"/>
	</g>
	<g>
		<path class="st1" d="M246.1,24.1c-5.7,0.4-12,0.5-17.7,0.5c-2,0-3.9,0-5.9-0.1c-0.2,0-0.4-0.2-0.4-0.4c0-0.2,0.2-0.4,0.4-0.4
			c7.7-0.5,15.9-0.6,23.6-0.3C246.5,23.4,246.5,24.1,246.1,24.1L246.1,24.1z"/>
	</g>
	<g>
		<path class="st1" d="M13.2,8.9C25,8.6,37.9,8.5,49.7,8.7c0.4,0,0.4,0.6,0,0.6c-3,0.1-6.1,0.2-9.1,0.2c-4.6,0.1-13.7,0.1-18.3,0.1
			c-3,0-6.1,0-9.1-0.1C12.9,9.5,12.8,8.9,13.2,8.9L13.2,8.9z"/>
	</g>
	<g>
		<path class="st1" d="M7.9,11.6c4.7-0.4,9.4-0.5,14.1-0.4c0.4,0,0.4,0.6,0,0.6c-4.7,0.4-9.4,0.5-14.1,0.3
			C7.6,12.1,7.6,11.6,7.9,11.6L7.9,11.6z"/>
	</g>
	<g>
		<path class="st1" d="M339.7,8.7c-0.1-0.4,0.4-0.6,0.7-0.4c0.2,0.1,0.4,0.5,0.2,0.7c-0.3,0.3-0.6,0.3-0.9,0.3
			c-0.9,0-3.4,0.1-4.3,0.1c-13.3,0.2-26.8,0-40.1-0.8c-0.2,0-0.3-0.2-0.3-0.3c0-0.2,0.2-0.3,0.3-0.3c14.1,0.4,28.9,0.6,42.9,0.7
			c0.2,0,1.7,0.1,1.9-0.1c0,0.1,0,0.2,0,0.2c0,0,0,0,0,0c0,0,0,0,0.1-0.1c0.1-0.1,0.1-0.2,0-0.2C340.4,8.9,339.8,9,339.7,8.7
			L339.7,8.7z"/>
	</g>
	<g>
		<path class="st1" d="M345,11.4c-4.2,0.2-9.5,0.3-13.8,0.3c-1.5,0-3.1-0.1-4.6-0.1c-0.2,0-0.3-0.2-0.3-0.3c0-0.2,0.1-0.3,0.3-0.3
			c4.2-0.2,9.5-0.3,13.8-0.2c1.5,0,3.1,0.1,4.6,0.1C345.4,10.8,345.4,11.4,345,11.4L345,11.4z"/>
	</g>
	<g>
		<path class="st1" d="M247.5,160c-50.4,0.1-106.9-0.1-157.3-0.7c-0.2,0-0.4-0.2-0.4-0.4c0-0.2,0.2-0.4,0.4-0.4
			c36-0.1,81.8,0.1,118,0.4c9.8,0.1,29.5,0.2,39.3,0.3c0.2,0,0.4,0.2,0.4,0.4C247.8,159.8,247.7,160,247.5,160L247.5,160z"/>
	</g>
	<g>
		<path class="st1" d="M81.8,159.8c-3.5,0-12.5-0.2-15.9-0.2c-1.8,0-3.5,0-5.3-0.1c-0.2,0-0.4-0.2-0.4-0.4c0-0.2,0.2-0.4,0.4-0.4
			c1.8-0.2,3.6-0.2,5.3-0.3c5.3-0.1,10.7,0,16,0.6C82.3,159.1,82.3,159.8,81.8,159.8L81.8,159.8z"/>
	</g>
	<g>
		<path class="st1" d="M252.5,159.3c11.4-0.9,22.9-1,34.4-0.5c3.8,0.2,7.6,0.4,11.5,0.8c0.5,0,0.5,0.8-0.1,0.8
			c-11.4-0.5-22.9-0.7-34.3-0.6c-3.8,0.1-7.6,0.1-11.4,0.2C252.1,160.1,252.1,159.4,252.5,159.3L252.5,159.3z"/>
	</g>
	<g>
		<path class="st1" d="M325.8,132.9c-1.1-0.2-0.1-1,0.2-0.7c0.3,0.3,0.2,0.5,0.2,0.6c-0.8,8.1-2.6,16.1-5.5,23.7
			c-0.1,0.4-0.7,0.2-0.6-0.2c2.4-7.7,4.2-15.6,5.5-23.6c0-0.1,0-0.2,0.1-0.1c0.1,0.1,0.3,0,0.3-0.2c0,0,0-0.1-0.1-0.2
			c-0.1,0-0.1,0-0.2,0C325.9,132.2,326.1,132.8,325.8,132.9L325.8,132.9z"/>
	</g>
	<g>
		<path class="st1" d="M250.7,10.3c-49.2,0-104.4-0.3-153.5-1c-0.3,0-0.5-0.2-0.5-0.5c0-0.3,0.2-0.5,0.5-0.5
			C132.3,8.4,177,8.7,212.3,9c9.5,0.1,28.8,0.3,38.4,0.5c0.2,0,0.4,0.2,0.4,0.4C251.1,10.2,250.9,10.4,250.7,10.3L250.7,10.3z"/>
	</g>
	<g>
		<g>
			<path class="st1" d="M322.6,321.1c-2.7,9.4-7,24.4-19.4,22.8c-0.5-0.1-0.4-0.8,0.1-0.8c11.6,0.8,15.3-13.5,18.6-22.2
				C322.1,320.5,322.7,320.6,322.6,321.1L322.6,321.1z"/>
		</g>
		<g>
			<path class="st1" d="M56.6,344.4c-15.9,0.6-23.5-4.7-24.7-20.9c0-0.5,0.7-0.6,0.8-0.1c2.1,15.9,8.4,20,24,20.3
				C57,343.6,57,344.4,56.6,344.4L56.6,344.4z"/>
		</g>
		<g>
			<path class="st1" d="M22.1,274.5c-0.7,0.5-1.1-0.8-0.3-0.9c0.6-0.1,0.8,0.7,0.8,0.9c0.2,0.8,0.6,2.9,0.8,3.7
				c2.2,11,4.6,23.8,6.3,35c0.1,0.5-0.7,0.6-0.8,0.1c-2.5-11.9-5-25.4-6.9-37.4c0-0.1-0.2-1.5-0.3-1.6c0,0,0,0,0.1,0
				c0.4-0.1,0-0.6-0.2-0.4C22.1,273.7,22.5,274.2,22.1,274.5L22.1,274.5z"/>
		</g>
		<g>
			<path class="st1" d="M333.8,267.6c-1.1,10.8-2.9,21.6-5,32.3c-0.7,3.6-1.5,7.1-2.3,10.6c0,0.2-0.3,0.3-0.5,0.3
				c-0.2,0-0.3-0.2-0.3-0.4l1.9-10.7c1.9-10.3,3.7-21.7,5.4-32.1C333.2,267.1,333.9,267.1,333.8,267.6L333.8,267.6z"/>
		</g>
		<g>
			<path class="st1" d="M326.4,276.5c-0.3,5.2-1.1,10.3-2.1,15.4c-0.4,1.7-0.7,3.4-1.2,5c-0.1,0.2-0.3,0.3-0.5,0.3
				c-0.2-0.1-0.3-0.2-0.3-0.4l3.3-20.3C325.7,276,326.4,276.1,326.4,276.5L326.4,276.5z"/>
		</g>
		<g>
			<path class="st1" d="M323.6,238.1c-67.3,0.3-142.9,0.3-210.2,0c-0.2,0-0.4-0.2-0.4-0.4c0-0.2,0.2-0.4,0.4-0.4
				c48.1-0.2,109.4-0.3,157.7-0.1c13.1,0,39.5,0.1,52.6,0.2c0.2,0,0.4,0.2,0.4,0.4C324,237.9,323.8,238.1,323.6,238.1L323.6,238.1z"
				/>
		</g>
		<g>
			<path class="st1" d="M94.8,236.2c-27.7,1.1-56.1,1.1-83.8,0c-0.2,0-0.4-0.2-0.4-0.4c0-0.2,0.2-0.4,0.4-0.4
				c20.3,0.3,42.6,0.5,62.8,0.3c0,0,20.9-0.2,20.9-0.2c0.2,0,0.4,0.2,0.4,0.3C95.2,236.1,95,236.2,94.8,236.2L94.8,236.2z"/>
		</g>
		<g>
			<path class="st1" d="M335.2,244.2c-13.9,0.3-31.1,0.3-45,0.2c-5,0-10-0.1-15-0.2c-0.5,0-0.5-0.8,0-0.8c13.9-0.3,31.1-0.2,45-0.2
				c5,0,10,0.1,15,0.2C335.6,243.5,335.7,244.2,335.2,244.2L335.2,244.2z"/>
		</g>
		<g>
			<path class="st1" d="M16.4,241.5c12.7-0.3,26.6-0.4,39.3,0c0.5,0,0.5,0.8,0,0.8c-3.3,0.1-6.5,0.2-9.8,0.2c-4.9,0-14.7,0-19.6,0
				c-3.3,0-6.5-0.1-9.8-0.2C16,242.2,15.9,241.5,16.4,241.5L16.4,241.5z"/>
		</g>
	</g>
	<g>
		<path class="st1" d="M314.4,292.1c-91.8,1.9-185.4,1.2-277.2-1.9c-0.3,0-0.6-0.3-0.6-0.6c0-0.3,0.3-0.6,0.6-0.6l69.3,1.4
			c46.2,0.7,92.4,1.1,138.6,1.1c17.2-0.1,52-0.2,69.3-0.4c0.3,0,0.6,0.2,0.6,0.6C314.9,291.8,314.7,292.1,314.4,292.1L314.4,292.1z"
			/>
	</g>
	<g>
		<path class="st1" d="M309.1,316.6c-85.2,0.1-180.9-0.2-266.1-1.1c-0.3,0-0.6-0.3-0.6-0.6c0-0.3,0.3-0.6,0.6-0.6
			c60.9-0.1,138.4,0.2,199.6,0.6c16.5,0.1,50,0.4,66.5,0.6c0.3,0,0.6,0.3,0.6,0.6C309.6,316.4,309.4,316.6,309.1,316.6L309.1,316.6z
			"/>
	</g>
	<g>
		<path class="st1" d="M327.7,190c2.6,5.7,5.4,12.9,7.7,18.7c0.8,2.1,1.6,4.2,2.3,6.3c0.1,0.2,0,0.4-0.2,0.5c-0.2,0.1-0.4,0-0.5-0.2
			c-2.6-5.7-5.4-12.9-7.7-18.7c-0.8-2.1-1.6-4.2-2.3-6.3C326.9,189.9,327.5,189.6,327.7,190L327.7,190z"/>
	</g>
	<g>
		<path class="st1" d="M34,170.6c-0.6,2.4-1.5,4.8-2.8,6.9c-0.1,0.2-0.4,0.2-0.5,0.1c-0.1-0.1-0.2-0.3-0.2-0.4
			c0.1-0.6,0.3-1.2,0.5-1.8C31.2,174.9,33.6,168.4,34,170.6L34,170.6z"/>
	</g>
	<g>
		<g>
			<path class="st1" d="M324.9,63.6c-49.6-9.4-100.1-12.4-150.5-12.4c-25.2-0.1-50.5,0.5-75.5,3.6c-12.2,1.7-44.4,6.1-56.2,7.7
				c-6.2,0.9-12.5,1.7-18.7,2.8c-0.3,0.1-0.7-0.1-0.8-0.5c-0.1-0.3,0.2-0.7,0.5-0.7c25-4.2,49.9-7.5,74.9-11
				c50.2-5.8,101-4.4,151.4-0.8c25.2,2,50.3,5.3,75,10.3c0.3,0.1,0.5,0.4,0.4,0.7C325.6,63.5,325.3,63.7,324.9,63.6L324.9,63.6z"/>
		</g>
		<g>
			<path class="st1" d="M321.4,80.2c-11.8-3.6-24.1-5-36.4-5.9c-12.3-1-24.7-1.8-37-2.5c-61.7-3-123.8-1.1-185.2,5.7
				c-12.3,1.3-24.6,2.9-36.8,4.6c-0.3,0.1-0.7-0.2-0.7-0.5c0-0.3,0.2-0.7,0.5-0.7c12.2-1.8,24.5-3.5,36.8-5
				c73.8-8.6,148.5-9.7,222.5-3.1c12.3,1.1,24.8,2.7,36.6,6.4c0.3,0.1,0.5,0.4,0.4,0.7C322,80.1,321.7,80.3,321.4,80.2L321.4,80.2z"
				/>
		</g>
		<g>
			<path class="st1" d="M319.1,97.5c-11-5.2-23.5-6-35.5-7.3c-8.5-0.9-18.8-1.8-27.3-2.5c-66.8-4.9-134.2-2.5-200.5,7.5
				c-8.7,1.3-18.4,2.9-27.1,4.4c-0.3,0.1-0.7-0.2-0.7-0.5c-0.1-0.3,0.2-0.7,0.5-0.7c8.6-1.6,18.3-3.3,27.1-4.7
				c69.4-10.9,140.1-13.1,210-6.8c11.8,1.1,24.7,2.3,36.4,4.2c6,1.1,12.1,2.6,17.6,5.4c0.3,0.1,0.4,0.5,0.3,0.8
				C319.7,97.6,319.4,97.7,319.1,97.5L319.1,97.5z"/>
		</g>
		<g>
			<path class="st1" d="M315,116.4c-11.5-2.5-23.3-3.7-35-4.6c-35.3-2.8-70.7-4.2-106.1-4.2c-35.4-0.1-70.8,1.2-106.1,4
				c-11.8,0.9-23.5,1.9-35.3,3.1c-0.3,0-0.6-0.2-0.7-0.6c0-0.3,0.2-0.6,0.6-0.7c11.7-1.3,23.5-2.5,35.3-3.5
				c58.9-4.9,118.1-5.7,177.1-2.3c23.6,1.6,47.3,2.5,70.5,7.6c0.3,0.1,0.5,0.4,0.4,0.7C315.6,116.3,315.3,116.4,315,116.4L315,116.4
				z"/>
		</g>
		<g>
			<path class="st1" d="M309.5,134.8c-84.2-11-170.1-11.8-254.4-2.4c0,0-16.9,2-16.9,2c-0.3,0-0.7-0.2-0.7-0.5
				c0-0.3,0.2-0.6,0.5-0.7c0,0,16.9-2.2,16.9-2.2c73.2-8.8,147.7-9.2,220.9-1.5c8.4,0.9,25.4,3,33.8,4.2c0.3,0,0.5,0.3,0.5,0.6
				C310.1,134.7,309.8,134.9,309.5,134.8L309.5,134.8z"/>
		</g>
	</g>
</g>
</svg>
