<?xml version="1.0" encoding="utf-8"?>
<!-- Generator: Adobe Illustrator 26.5.3, SVG Export Plug-In . SVG Version: 6.00 Build 0)  -->
<svg version="1.1" id="圖層_1" xmlns="http://www.w3.org/2000/svg" xmlns:xlink="http://www.w3.org/1999/xlink" x="0px" y="0px"
	 viewBox="0 0 1920 22" style="enable-background:new 0 0 1920 22;" xml:space="preserve">
<g>
	<path d="M0,22C0,13.7,10.5,7,23.4,7s23.4,6.7,23.4,15"/>
	<path d="M46.8,22c0-8.3,10.5-15,23.4-15s23.4,6.7,23.4,15"/>
	<path d="M93.7,22c0-8.3,10.5-15,23.4-15s23.4,6.7,23.4,15"/>
	<path d="M140.5,22c0-8.3,10.5-15,23.4-15s23.4,6.7,23.4,15"/>
	<path d="M187.3,22c0-8.3,10.5-15,23.4-15s23.4,6.7,23.4,15"/>
	<path d="M234.1,22c0-8.3,10.5-15,23.4-15S281,13.7,281,22"/>
	<path d="M281,22c0-8.3,10.5-15,23.4-15c12.9,0,23.4,6.7,23.4,15"/>
	<path d="M327.8,22c0-8.3,10.5-15,23.4-15s23.4,6.7,23.4,15"/>
	<path d="M374.6,22c0-8.3,10.5-15,23.4-15c12.9,0,23.4,6.7,23.4,15"/>
	<path d="M421.5,22c0-8.3,10.5-15,23.4-15s23.4,6.7,23.4,15"/>
	<path d="M468.3,22c0-8.3,10.5-15,23.4-15s23.4,6.7,23.4,15"/>
	<path d="M515.1,22c0-8.3,10.5-15,23.4-15c12.9,0,23.4,6.7,23.4,15"/>
	<path d="M562,22c0-8.3,10.5-15,23.4-15c12.9,0,23.4,6.7,23.4,15"/>
	<path d="M608.8,22c0-8.3,10.5-15,23.4-15c12.9,0,23.4,6.7,23.4,15"/>
	<path d="M655.6,22c0-8.3,10.5-15,23.4-15c12.9,0,23.4,6.7,23.4,15"/>
	<path d="M702.4,22c0-8.3,10.5-15,23.4-15c12.9,0,23.4,6.7,23.4,15"/>
	<path d="M749.3,22c0-8.3,10.5-15,23.4-15c12.9,0,23.4,6.7,23.4,15"/>
	<path d="M796.1,22c0-8.3,10.5-15,23.4-15c12.9,0,23.4,6.7,23.4,15"/>
	<path d="M842.9,22c0-8.3,10.5-15,23.4-15c12.9,0,23.4,6.7,23.4,15"/>
	<path d="M889.8,22c0-8.3,10.5-15,23.4-15c12.9,0,23.4,6.7,23.4,15"/>
	<path d="M936.6,22c0-8.3,10.5-15,23.4-15s23.4,6.7,23.4,15"/>
	<path d="M983.4,22c0-8.3,10.5-15,23.4-15c12.9,0,23.4,6.7,23.4,15"/>
	<path d="M1030.2,22c0-8.3,10.5-15,23.4-15s23.4,6.7,23.4,15"/>
	<path d="M1077.1,22c0-8.3,10.5-15,23.4-15s23.4,6.7,23.4,15"/>
	<path d="M1123.9,22c0-8.3,10.5-15,23.4-15c12.9,0,23.4,6.7,23.4,15"/>
	<path d="M1170.7,22c0-8.3,10.5-15,23.4-15s23.4,6.7,23.4,15"/>
	<path d="M1217.6,22c0-8.3,10.5-15,23.4-15s23.4,6.7,23.4,15"/>
	<path d="M1264.4,22c0-8.3,10.5-15,23.4-15c12.9,0,23.4,6.7,23.4,15"/>
	<path d="M1311.2,22c0-8.3,10.5-15,23.4-15s23.4,6.7,23.4,15"/>
	<path d="M1358,22c0-8.3,10.5-15,23.4-15c12.9,0,23.4,6.7,23.4,15"/>
	<path d="M1404.9,22c0-8.3,10.5-15,23.4-15c12.9,0,23.4,6.7,23.4,15"/>
	<path d="M1451.7,22c0-8.3,10.5-15,23.4-15s23.4,6.7,23.4,15"/>
	<path d="M1498.5,22c0-8.3,10.5-15,23.4-15c12.9,0,23.4,6.7,23.4,15"/>
	<path d="M1545.4,22c0-8.3,10.5-15,23.4-15s23.4,6.7,23.4,15"/>
	<path d="M1592.2,22c0-8.3,10.5-15,23.4-15s23.4,6.7,23.4,15"/>
	<path d="M1639,22c0-8.3,10.5-15,23.4-15c12.9,0,23.4,6.7,23.4,15"/>
	<path d="M1685.9,22c0-8.3,10.5-15,23.4-15s23.4,6.7,23.4,15"/>
	<path d="M1732.7,22c0-8.3,10.5-15,23.4-15s23.4,6.7,23.4,15"/>
	<path d="M1779.5,22c0-8.3,10.5-15,23.4-15c12.9,0,23.4,6.7,23.4,15"/>
	<path d="M1826.3,22c0-8.3,10.5-15,23.4-15s23.4,6.7,23.4,15"/>
	<path d="M1873.2,22c0-8.3,10.5-15,23.4-15c12.9,0,23.4,6.7,23.4,15"/>
</g>
</svg>
