<?xml version="1.0" encoding="utf-8"?>
<!-- Generator: Adobe Illustrator 26.5.3, SVG Export Plug-In . SVG Version: 6.00 Build 0)  -->
<svg version="1.1" xmlns="http://www.w3.org/2000/svg" xmlns:xlink="http://www.w3.org/1999/xlink" x="0px" y="0px"
	 viewBox="0 0 1024 1024" style="enable-background:new 0 0 1024 1024;" xml:space="preserve">
<style type="text/css">
	.st0{fill:#FFF4DE;}
	.st1{fill:none;stroke:#D3D3D3;stroke-width:4;stroke-miterlimit:16;stroke-dasharray:3.5667,3.5667;}
	.st2{fill:none;stroke:#D3D3D3;stroke-width:4;stroke-miterlimit:16;}
	.st3{fill:#475476;}
	.st4{fill:none;stroke:#FFFFFF;stroke-width:9.5;stroke-linecap:round;stroke-linejoin:round;stroke-dasharray:0.95,28.5;}
</style>
<g id="圖層_3">
	<rect class="st0" width="1024" height="1024"/>
</g>
<g id="Grid">
	<g>
		<line class="st1" x1="0" y1="512" x2="1024" y2="512"/>
		<line class="st2" x1="0" y1="204.5" x2="1024" y2="204.5"/>
		<line class="st2" x1="0" y1="819.5" x2="1024" y2="819.5"/>
	</g>
</g>
<g id="B">
	<g>
		<rect x="280.5" y="203.9" class="st3" width="67.4" height="615.9"/>
		<line class="st4" x1="313.7" y1="242.3" x2="313.7" y2="787"/>
		<path class="st3" d="M494.8,203.9H347.9v67.4h146.9c103.6,0,155.4,32,155.4,96.1c0,42.2-20.7,73.7-62,94.3
			c-27,1.2-58.1,1.8-93.4,1.8H347.9v67.4h182.4c4.9,0.1,9.7,0.2,14.5,0.3c0,0,0,0,0,0c14.1,0,66.2-4.8,107.7-34.9
			c43.4-27,65.1-69.9,65.1-128.9C717.6,258.4,643.3,203.9,494.8,203.9z"/>
		<path class="st4" d="M336.7,501.8h257.5c52.3-26.2,90.9-76.3,90.9-129.7c0-81.1-58.3-129.7-189.5-129.7h-182"/>
		<path class="st3" d="M753.1,651.8c0,112-74.3,168-222.8,168H347.9v-67.4h182.4c103.6,0,155.4-33.5,155.4-100.6
			c0-51.2-29.4-90.4-88-117.7c-20.4-1.8-42.8-2.8-67.4-3.2H347.9v-67.4h146.9c19.9,0,38.5-0.2,55.7-0.6c50.1,4.8,102,33.4,102,33.4
			C719.5,526.9,753.1,578.7,753.1,651.8z"/>
		<path class="st4" d="M347.9,787h180.7c128.7,0,193.1-43.2,193.1-129.6c0-66-54.5-120.5-127.4-155.6c0,0-35.2,0.4-65.7,0H347.9"/>
	</g>
</g>
</svg>
