<?xml version="1.0" encoding="utf-8"?>
<!-- Generator: Adobe Illustrator 26.5.3, SVG Export Plug-In . SVG Version: 6.00 Build 0)  -->
<svg version="1.1" xmlns="http://www.w3.org/2000/svg" xmlns:xlink="http://www.w3.org/1999/xlink" x="0px" y="0px"
	 viewBox="0 0 1024 1024" style="enable-background:new 0 0 1024 1024;" xml:space="preserve">
<style type="text/css">
	.st0{fill:#FFF4DE;}
	.st1{fill:none;stroke:#D3D3D3;stroke-width:4;stroke-miterlimit:16;stroke-dasharray:3.5667,3.5667;}
	.st2{fill:none;stroke:#D3D3D3;stroke-width:4;stroke-miterlimit:16;}
	.st3{fill:#E25D33;}
	.st4{fill:none;stroke:#FFFFFF;stroke-width:9.8131;stroke-linecap:round;stroke-linejoin:round;stroke-dasharray:0.9813,29.4393;}
</style>
<g id="圖層_3">
	<rect class="st0" width="1024" height="1024"/>
</g>
<g id="Grid">
	<g>
		<line class="st1" x1="0" y1="512" x2="1024" y2="512"/>
		<line class="st2" x1="0" y1="204.5" x2="1024" y2="204.5"/>
		<line class="st2" x1="0" y1="819.5" x2="1024" y2="819.5"/>
	</g>
</g>
<g id="C">
	<g>
		<g>
			<path class="st3" d="M678.5,340.8c-39.3-47-90.6-70.5-154-70.5c-63.7,0-116.5,23.6-158.5,70.8c-42,47.2-63,104.2-63,171
				c0,66.8,21,123.8,63,171c42,47.2,94.8,70.8,158.5,70.8c63.4,0,114.7-23.7,154-71c8.3-8.9,15.9-18.1,22.8-27.5l45.6,45.6
				c-7.5,9.8-15.5,19.2-24.1,28.4c-51.3,60.2-117.4,90.3-198.3,90.3c-80.9,0-148.5-30-202.8-90.1c-54.3-60.1-81.5-132.5-81.5-217.4
				c0-84.9,27.2-157.3,81.5-217.4c54.3-60.1,121.9-90.1,202.8-90.1c80.9,0,147,30,198.3,89.9c7.5,7.7,14.3,15.8,20.6,24.1L697.9,364
				C692.1,356,685.7,348.3,678.5,340.8z"/>
		</g>
	</g>
	<g>
		<path class="st4" d="M717,693C660,764.8,593.7,793.8,519.9,793.8c-68.8,0-126.2-27.3-172.5-81.8c-46.2-54.5-76.9-120.3-76.9-197.3
			c0-77,30.7-142.8,76.9-197.3c46.2-54.5,126.1-81.8,172.5-81.8c128.3,0,183.7,86.2,189.1,93.8"/>
	</g>
</g>
</svg>
