<?xml version="1.0" encoding="utf-8"?>
<!-- Generator: Adobe Illustrator 26.5.3, SVG Export Plug-In . SVG Version: 6.00 Build 0)  -->
<svg version="1.1" xmlns="http://www.w3.org/2000/svg" xmlns:xlink="http://www.w3.org/1999/xlink" x="0px" y="0px"
	 viewBox="0 0 1024 1024" style="enable-background:new 0 0 1024 1024;" xml:space="preserve">
<style type="text/css">
	.st0{fill:#FFF4DE;}
	.st1{fill:none;stroke:#D3D3D3;stroke-width:4;stroke-miterlimit:16;stroke-dasharray:3.5667,3.5667;}
	.st2{fill:none;stroke:#D3D3D3;stroke-width:4;stroke-miterlimit:16;}
	.st3{fill:#E49354;}
	.st4{fill:none;stroke:#FFFFFF;stroke-width:10.9622;stroke-linecap:round;stroke-linejoin:round;stroke-dasharray:1.0962,32.8865;}
</style>
<g id="圖層_3">
	<rect class="st0" width="1024" height="1024"/>
</g>
<g id="Grid">
	<g>
		<line class="st1" x1="0" y1="512" x2="1024" y2="512"/>
		<line class="st2" x1="0" y1="204.5" x2="1024" y2="204.5"/>
		<line class="st2" x1="0" y1="819.5" x2="1024" y2="819.5"/>
	</g>
</g>
<g id="G">
	<path class="st3" d="M670.1,678.5c-1.2,1.4-2.4,2.9-3.9,4.3c-39.3,47.3-90.6,71-154,71c-63.7,0-116.5-23.6-158.5-70.8
		c-42-47.2-63-104.2-63-171s21-123.8,63-171c42-47.2,94.8-70.8,158.5-70.8c63.4,0,114.7,23.5,154,70.5c7.2,7.5,13.6,15.2,19.4,23.2
		l45.6-45.6c-6.3-8.3-13.2-16.4-20.7-24.1c-51.3-59.9-117.4-89.9-198.3-89.9s-148.5,30-202.8,90.1c-54.4,60.1-81.5,132.6-81.5,217.4
		c0,84.9,27.2,157.3,81.5,217.4c54.3,60.1,121.9,90.1,202.8,90.1s146.9-30.1,198.3-90.3c8.6-9.2,16.6-18.6,24.1-28.4L670.1,678.5z"
		/>
	<path class="st4" d="M685.2,704.7c-44.6,53.4-102,80.1-172.2,80.1c-70.2,0-129-26.6-176.2-80C289.6,651.6,266,587.3,266,512
		c0-75.3,23.6-139.6,70.8-192.9c47.2-53.3,105.9-80,176.2-80c70.2,0,127.6,26.6,172.2,79.8"/>
	<polyline class="st3" points="734.6,486.6 734.6,551.1 523.8,551.1 523.8,486.6 	"/>
	<line class="st4" x1="523.8" y1="518.9" x2="734.6" y2="518.9"/>
	<polygon class="st3" points="734.6,551.1 734.6,700.8 670.1,678.5 670.1,551.1 	"/>
	<line class="st4" x1="702.3" y1="551.1" x2="702.3" y2="689.6"/>
</g>
</svg>
