<?xml version="1.0" encoding="utf-8"?>
<!-- Generator: Adobe Illustrator 26.5.3, SVG Export Plug-In . SVG Version: 6.00 Build 0)  -->
<svg version="1.1" xmlns="http://www.w3.org/2000/svg" xmlns:xlink="http://www.w3.org/1999/xlink" x="0px" y="0px"
	 viewBox="0 0 1024 1024" style="enable-background:new 0 0 1024 1024;" xml:space="preserve">
<style type="text/css">
	.st0{fill:#FFF4DE;}
	.st1{fill:none;stroke:#D3D3D3;stroke-width:4;stroke-miterlimit:16;stroke-dasharray:3.5667,3.5667;}
	.st2{fill:none;stroke:#D3D3D3;stroke-width:4;stroke-miterlimit:16;}
	.st3{fill:#1A07A0;}
	.st4{fill:none;stroke:#FFFFFF;stroke-width:10.9622;stroke-linecap:round;stroke-linejoin:round;stroke-dasharray:1.0962,32.8865;}
</style>
<g id="圖層_3">
	<rect class="st0" width="1024" height="1024"/>
</g>
<g id="Grid">
	<g>
		<line class="st1" x1="0" y1="512" x2="1024" y2="512"/>
		<line class="st2" x1="0" y1="204.5" x2="1024" y2="204.5"/>
		<line class="st2" x1="0" y1="819.5" x2="1024" y2="819.5"/>
	</g>
</g>
<g id="J">
	<path class="st3" d="M414.7,205.7V272H637v-66.3H414.7z"/>
	<line class="st4" x1="414.7" y1="238.8" x2="637" y2="238.8"/>
	<path class="st3" d="M441.2,819.4c-59.2,0-104-20-134.3-60.1l41.5-49.9c25.3,29.2,56.2,43.7,92.8,43.7c36.5,3,54.8-45.1,54.8-144
		V272h66.3v337.1C568.2,752.3,527.8,822.4,441.2,819.4z"/>
	<path class="st4" d="M530.4,272v332.6c5,121.7-21.9,186.7-95.5,184.2c-38.9,0.1-82.2-19.4-107.9-53.5"/>
</g>
</svg>
