<?xml version="1.0" encoding="utf-8"?>
<!-- Generator: Adobe Illustrator 26.5.3, SVG Export Plug-In . SVG Version: 6.00 Build 0)  -->
<svg version="1.1" xmlns="http://www.w3.org/2000/svg" xmlns:xlink="http://www.w3.org/1999/xlink" x="0px" y="0px"
	 viewBox="0 0 1024 1024" style="enable-background:new 0 0 1024 1024;" xml:space="preserve">
<style type="text/css">
	.st0{fill:#FFF4DE;}
	.st1{fill:none;stroke:#D3D3D3;stroke-width:4;stroke-miterlimit:16;stroke-dasharray:3.5667,3.5667;}
	.st2{fill:none;stroke:#D3D3D3;stroke-width:4;stroke-miterlimit:16;}
	.st3{fill:#F21C2F;}
	.st4{fill:none;stroke:#FFFFFF;stroke-width:11.0185;stroke-linecap:round;stroke-linejoin:round;stroke-dasharray:1.1019,33.0553;}
</style>
<g id="圖層_3">
	<rect class="st0" width="1024" height="1024"/>
</g>
<g id="Grid">
	<g>
		<line class="st1" x1="0" y1="512" x2="1024" y2="512"/>
		<line class="st2" x1="0" y1="204.5" x2="1024" y2="204.5"/>
		<line class="st2" x1="0" y1="819.5" x2="1024" y2="819.5"/>
	</g>
</g>
<g id="P">
	<path class="st3" d="M341.8,204.5v615.1h67.3V204.5H341.8z"/>
	<line class="st4" x1="375.4" y1="204.5" x2="375.4" y2="818.2"/>
	<path class="st3" d="M665.7,517.6c-34.4,17.9-59.1,26.2-74,24.7H409.1V475h128.3c24.5-0.3,47-1.3,67.3-3.1
		c58.6-27.2,86.4-63.4,83.4-108.6c-15-61-51.8-91.5-110.4-91.5H409.1v-67.3h168.7c103.5,0,162.7,52.9,177.7,158.8
		C758.4,430.3,728.5,481.7,665.7,517.6z"/>
	<path class="st4" d="M409.1,506.8h138.7c29.1-0.4,55.7-1.8,79.8-4.1c69.5-35.3,102.5-82.3,98.9-140.9
		c-17.7-79.2-61.4-118.8-130.9-118.8H409.1"/>
</g>
</svg>
