<?xml version="1.0" encoding="utf-8"?>
<!-- Generator: Adobe Illustrator 26.5.3, SVG Export Plug-In . SVG Version: 6.00 Build 0)  -->
<svg version="1.1" xmlns="http://www.w3.org/2000/svg" xmlns:xlink="http://www.w3.org/1999/xlink" x="0px" y="0px"
	 viewBox="0 0 1024 1024" style="enable-background:new 0 0 1024 1024;" xml:space="preserve">
<style type="text/css">
	.st0{fill:#FFF4DE;}
	.st1{fill:none;stroke:#D3D3D3;stroke-width:4;stroke-miterlimit:16;stroke-dasharray:3.5667,3.5667;}
	.st2{fill:none;stroke:#D3D3D3;stroke-width:4;stroke-miterlimit:16;}
	.st3{fill:#825236;}
	.st4{fill:none;stroke:#FFFFFF;stroke-width:11.0185;stroke-linecap:round;stroke-linejoin:round;stroke-dasharray:1.1019,33.0553;}
</style>
<g id="圖層_3">
	<rect class="st0" width="1024" height="1024"/>
</g>
<g id="Grid">
	<g>
		<line class="st1" x1="0" y1="512" x2="1024" y2="512"/>
		<line class="st2" x1="0" y1="204.5" x2="1024" y2="204.5"/>
		<line class="st2" x1="0" y1="819.5" x2="1024" y2="819.5"/>
	</g>
</g>
<g id="S">
	<path class="st3" d="M312.8,618.8l61.3-6.4c2.8,29.7,9.6,54.1,20.2,73.1c10.6,19,27,35.5,49.1,49.3c22.2,13.9,48.7,20.8,79.6,20.8
		c27.5,0,50.4-5.5,68.8-16.5c18.5-11,32.2-24.3,41.4-39.9c9.1-15.6,13.7-32.5,13.7-50.8c0-18.6-4.4-35.8-13.3-51.7
		c-8.9-15.9-23-28.5-42.5-38c-13.2-6.3-43.6-16.4-91.4-30.5c-47.8-14-80.6-26.6-98.7-37.7c-23.5-13.4-40.9-31.2-52.3-53.2
		c-11.4-22-17.2-45.2-17.2-69.5c0-30,7-58,21-84.1c14-26,34.5-45.7,61.3-59.2c26.9-13.4,58.3-20.2,94.4-20.2
		c36.3,0,68.3,7.1,95.9,21.2c27.6,14.2,48.9,35,63.9,62.4c15,27.5,23.1,58.6,24.2,93.5l-62.2,5.6c-3.4-37.5-14.8-66.6-34.1-87.5
		c-19.3-20.9-47.7-31.3-85.1-31.3c-40.9,0-70.3,9.6-88.4,28.7c-18,19.2-27,41-27,65.6c0,24,6.4,43.8,19.3,59.2
		c12.3,11.2,46,24.7,101,40.7c55,16,92.3,29.5,111.7,40.3c28.6,16,49.7,36,63.3,59.8c13.6,23.9,20.4,50.3,20.4,79.1
		c0,31.5-7.4,61.2-22.3,89.2c-14.9,28-36.3,49.8-64.3,65.2c-28,15.4-60.9,23.2-98.7,23.2c-47.2,0-85.8-7.8-115.8-23.4
		c-30-15.6-53.5-39.1-70.6-70.6C322.6,694.2,313.6,658.6,312.8,618.8z"/>
	<path class="st4" d="M345.5,642c2.3,23.8,7.7,43.3,16.3,58.5c8.5,15.2,26.3,36.4,42,50.3c21.5,18.9,61.2,34.3,85.9,37.2
		c25.1,2.9,78-2.7,94-9.2c22.9-9.3,50.7-24.8,69.9-52.7c26-37.8,25.4-64.2,25.4-78.8c0-14.9,0-49.5-24.1-79.5
		c-23.8-29.7-62-38.7-77.7-46.3c-10.6-5-35.2-13.2-73.8-24.4C465,486,438.5,475.9,424,467c-18.9-10.8-33-24.9-42.2-42.6
		c-9.2-17.6-13.9-36.2-13.9-55.6c0-24,5.7-46.4,17-67.3c11.3-20.8,27.8-36.6,49.5-47.4c21.7-10.8,47.1-16.1,76.2-16.1
		c29.3,0,55.1,5.7,77.4,17c22.3,11.3,39.5,28,51.6,49.9c12.1,22,18.6,46.9,19.6,74.8"/>
</g>
</svg>
