<?xml version="1.0" encoding="utf-8"?>
<!-- Generator: Adobe Illustrator 26.5.3, SVG Export Plug-In . SVG Version: 6.00 Build 0)  -->
<svg version="1.1" xmlns="http://www.w3.org/2000/svg" xmlns:xlink="http://www.w3.org/1999/xlink" x="0px" y="0px"
	 viewBox="0 0 1024 1024" style="enable-background:new 0 0 1024 1024;" xml:space="preserve">
<style type="text/css">
	.st0{fill:#FFF4DE;}
	.st1{fill:none;stroke:#D3D3D3;stroke-width:4;stroke-miterlimit:16;stroke-dasharray:3.5667,3.5667;}
	.st2{fill:none;stroke:#D3D3D3;stroke-width:4;stroke-miterlimit:16;}
	.st3{fill:#3A4875;}
	.st4{fill:none;stroke:#FFFFFF;stroke-width:11.3195;stroke-linecap:round;stroke-linejoin:round;stroke-dasharray:1.132,33.9586;}
	.st5{fill:none;stroke:#FFFFFF;stroke-width:10.9622;stroke-linecap:round;stroke-linejoin:round;stroke-dasharray:1.0962,32.8865;}
</style>
<g id="圖層_3">
	<rect class="st0" width="1024" height="1024"/>
</g>
<g id="Grid">
	<g>
		<line class="st1" x1="0" y1="512" x2="1024" y2="512"/>
		<line class="st2" x1="0" y1="204.5" x2="1024" y2="204.5"/>
		<line class="st2" x1="0" y1="819.5" x2="1024" y2="819.5"/>
	</g>
</g>
<g id="D">
	<rect x="288.4" y="204.5" class="st3" width="67.9" height="615.1"/>
	<line class="st4" x1="328.5" y1="240.6" x2="328.5" y2="783.9"/>
	<path class="st3" d="M812,512c-6-183-84.1-285.5-234.2-307.5H356.3v67.9c103,0,176.8,0.8,221.5,2.3c98.7,16.9,154.1,96,166.2,237.3
		c1.8,134.4-47.4,214.4-147.7,240c-59.2-0.3-139.2-0.5-240-0.5v67.9h240C743.1,792.4,815,689.8,812,512z"/>
	<path class="st5" d="M356.3,783.9c109.1,0,195.7,0.2,259.7,0.5c108.4-29.6,165.2-116.9,163.3-271.9
		c-13.1-163-76.5-249.7-183.3-269.3c-48.3-1.7-128.2-2.6-239.6-2.6"/>
</g>
</svg>
