<?xml version="1.0" encoding="utf-8"?>
<!-- Generator: Adobe Illustrator 26.5.3, SVG Export Plug-In . SVG Version: 6.00 Build 0)  -->
<svg version="1.1" xmlns="http://www.w3.org/2000/svg" xmlns:xlink="http://www.w3.org/1999/xlink" x="0px" y="0px"
	 viewBox="0 0 1024 1024" style="enable-background:new 0 0 1024 1024;" xml:space="preserve">
<style type="text/css">
	.st0{fill:#FFF4DE;}
	.st1{fill:none;stroke:#D3D3D3;stroke-width:4;stroke-miterlimit:16;stroke-dasharray:3.5667,3.5667;}
	.st2{fill:none;stroke:#D3D3D3;stroke-width:4;stroke-miterlimit:16;}
	.st3{fill:#036FB8;}
	.st4{fill:none;stroke:#FFFFFF;stroke-width:11.0185;stroke-linecap:round;stroke-linejoin:round;stroke-dasharray:1.1019,33.0553;}
</style>
<g id="圖層_3">
	<rect class="st0" width="1024" height="1024"/>
</g>
<g id="Grid">
	<g>
		<line class="st1" x1="0" y1="512" x2="1024" y2="512"/>
		<line class="st2" x1="0" y1="204.5" x2="1024" y2="204.5"/>
		<line class="st2" x1="0" y1="819.5" x2="1024" y2="819.5"/>
	</g>
</g>
<g id="O">
	<path class="st3" d="M710.1,294.4c-51.2-59.9-117.2-89.9-197.8-89.9c-80.7,0-146.7,30-198.1,89.9c-51.4,59.9-77,132.3-77,216.9
		c0,84.7,25.7,157,77,216.9c51.4,60,117.4,89.9,198.1,89.9c80.7,0,146.6-30,197.8-89.9c51.2-59.9,76.8-132.2,76.8-216.9
		C786.9,426.6,761.3,354.3,710.1,294.4z M664.1,680.2c-38.6,46.5-89.3,69.7-151.9,69.7c-63,0-113.7-23.2-152.4-69.7
		c-38.6-46.5-57.9-102.8-57.9-168.9s19.3-122.4,57.9-168.9c38.6-46.5,89.4-69.7,152.4-69.7c62.7,0,113.3,23.3,151.9,69.7
		c38.6,46.5,57.9,102.8,57.9,168.9S702.8,633.7,664.1,680.2z"/>
	<path class="st4" d="M512.2,242.2c-73.6,0-132.9,26.6-178,79.8c-45.1,53.2-67.7,117.6-67.7,193.2s22.6,140,67.7,193.2
		c45.1,53.2,104.5,79.8,178,79.8c73.2,0,132.4-26.6,177.5-79.8c45.1-53.2,67.7-117.6,67.7-193.2s-22.6-140-67.7-193.2
		C644.6,268.8,585.4,242.2,512.2,242.2z"/>
</g>
</svg>
