<?xml version="1.0" encoding="utf-8"?>
<!-- Generator: Adobe Illustrator 26.5.3, SVG Export Plug-In . SVG Version: 6.00 Build 0)  -->
<svg version="1.1" xmlns="http://www.w3.org/2000/svg" xmlns:xlink="http://www.w3.org/1999/xlink" x="0px" y="0px"
	 viewBox="0 0 1024 1024" style="enable-background:new 0 0 1024 1024;" xml:space="preserve">
<style type="text/css">
	.st0{fill:#FFF4DE;}
	.st1{fill:none;stroke:#D3D3D3;stroke-width:4;stroke-miterlimit:16;stroke-dasharray:3.5667,3.5667;}
	.st2{fill:none;stroke:#D3D3D3;stroke-width:4;stroke-miterlimit:16;}
	.st3{fill:#A0132B;}
	.st4{fill:none;stroke:#FFFFFF;stroke-width:11.0185;stroke-linecap:round;stroke-linejoin:round;stroke-dasharray:1.1019,33.0553;}
</style>
<g id="圖層_3">
	<rect class="st0" width="1024" height="1024"/>
</g>
<g id="Grid">
	<g>
		<line class="st1" x1="0" y1="512" x2="1024" y2="512"/>
		<line class="st2" x1="0" y1="204.5" x2="1024" y2="204.5"/>
		<line class="st2" x1="0" y1="819.5" x2="1024" y2="819.5"/>
	</g>
</g>
<g id="Q">
	<path class="st3" d="M776.6,510.6c0,84.5-25.6,156.6-76.6,216.4c-51.1,59.8-116.9,89.7-197.4,89.7c-80.5,0-146.4-29.9-197.6-89.7
		c-51.2-59.8-76.9-131.9-76.9-216.4c0-84.5,25.6-156.6,76.9-216.4c51.2-59.8,117.1-89.7,197.6-89.7c80.5,0,146.3,29.9,197.4,89.7
		C751.1,354,776.6,426.1,776.6,510.6z M502.6,272.5c-62.8,0-113.5,23.2-152,69.6c-38.5,46.4-57.8,102.5-57.8,168.5
		s19.3,122.1,57.8,168.5c38.5,46.4,89.2,69.6,152,69.6c62.5,0,113-23.2,151.6-69.6c38.5-46.4,57.8-102.5,57.8-168.5
		s-19.3-122.1-57.8-168.5C615.6,295.7,565.1,272.5,502.6,272.5z"/>
	<path class="st4" d="M505.3,242.2c-71.5,0-129.2,26.6-173,79.8c-43.9,53.2-65.8,117.6-65.8,193.2s21.9,140,65.8,193.2
		c43.9,53.2,101.5,79.8,173,79.8c71.2,0,128.7-26.6,172.5-79.8c43.9-53.2,65.8-117.6,65.8-193.2s-21.9-140-65.8-193.2
		C634,268.8,576.5,242.2,505.3,242.2z"/>
	<polygon class="st3" points="605.4,646.3 750.9,871.1 669.6,871.1 524.4,646.3 	"/>
	<line class="st4" x1="568.9" y1="646.3" x2="712" y2="871.1"/>
</g>
</svg>
