<?xml version="1.0" encoding="utf-8"?>
<!-- Generator: Adobe Illustrator 26.5.3, SVG Export Plug-In . SVG Version: 6.00 Build 0)  -->
<svg version="1.1" xmlns="http://www.w3.org/2000/svg" xmlns:xlink="http://www.w3.org/1999/xlink" x="0px" y="0px"
	 viewBox="0 0 1024 1024" style="enable-background:new 0 0 1024 1024;" xml:space="preserve">
<style type="text/css">
	.st0{fill:#FFF4DE;}
	.st1{fill:none;stroke:#D3D3D3;stroke-width:4;stroke-miterlimit:16;stroke-dasharray:3.5667,3.5667;}
	.st2{fill:none;stroke:#D3D3D3;stroke-width:4;stroke-miterlimit:16;}
	.st3{fill:#E86D01;}
	.st4{fill:none;stroke:#FFFFFF;stroke-width:11.0185;stroke-linecap:round;stroke-linejoin:round;stroke-dasharray:1.1019,33.0553;}
</style>
<g id="圖層_3">
	<rect class="st0" width="1024" height="1024"/>
</g>
<g id="Grid">
	<g>
		<line class="st1" x1="0" y1="512" x2="1024" y2="512"/>
		<line class="st2" x1="0" y1="204.5" x2="1024" y2="204.5"/>
		<line class="st2" x1="0" y1="819.5" x2="1024" y2="819.5"/>
	</g>
</g>
<g id="R">
	<rect x="295.7" y="204.5" class="st3" width="67.3" height="615.1"/>
	<line class="st4" x1="328.6" y1="204.5" x2="328.6" y2="818.2"/>
	<path class="st3" d="M673.4,517.6c-20.4,10.8-44.9,17.9-73.6,21.5l-75.4,3.1H363V475h182.1c24.5,0.3,46.9-0.7,67.3-3.1
		c58.6-27.2,86.4-66.4,83.4-117.5c-15-55-51.8-82.5-110.4-82.5H363v-67.3h222.5c103.5,0,162.7,49.9,177.7,149.8
		C766.1,427.3,736.2,481.7,673.4,517.6z"/>
	<path class="st4" d="M363,506.8h184.8c29.1-0.4,55.7-1.8,79.8-4.1c69.5-35.3,102.5-82.3,98.9-140.9
		c-17.7-79.2-61.4-118.8-130.9-118.8H363"/>
	<path class="st3" d="M599.8,539.1l-75.4,3.1l181.2,276.8h77.2L599.8,539.1z"/>
	<line class="st4" x1="559.2" y1="540" x2="740.7" y2="819.6"/>
</g>
</svg>
