<?xml version="1.0" encoding="utf-8"?>
<!-- Generator: Adobe Illustrator 26.5.3, SVG Export Plug-In . SVG Version: 6.00 Build 0)  -->
<svg version="1.1" xmlns="http://www.w3.org/2000/svg" xmlns:xlink="http://www.w3.org/1999/xlink" x="0px" y="0px"
	 viewBox="0 0 1024 1024" style="enable-background:new 0 0 1024 1024;" xml:space="preserve">
<style type="text/css">
	.st0{fill:#FFF4DE;}
	.st1{fill:none;stroke:#D3D3D3;stroke-width:4;stroke-miterlimit:16;stroke-dasharray:3.5667,3.5667;}
	.st2{fill:none;stroke:#D3D3D3;stroke-width:4;stroke-miterlimit:16;}
	.st3{fill:#E49354;}
	.st4{fill:none;stroke:#FFFFFF;stroke-width:11.0185;stroke-linecap:round;stroke-linejoin:round;stroke-dasharray:1.1019,33.0553;}
</style>
<g id="圖層_3">
	<rect class="st0" width="1024" height="1024"/>
</g>
<g id="Grid">
	<g>
		<line class="st1" x1="0" y1="512" x2="1024" y2="512"/>
		<line class="st2" x1="0" y1="204.5" x2="1024" y2="204.5"/>
		<line class="st2" x1="0" y1="819.5" x2="1024" y2="819.5"/>
	</g>
</g>
<g id="U">
	<g>
		<g>
			<path class="st3" d="M514.1,818.6c-158-6-242.9-57.1-254.7-153.2l1.4-461.9h68.4v461.9c0.6,50.8,62.2,79.2,184.9,85.2
				c119.9-3,181.3-32,184-87l0.5-460.1h68L766.1,669C751.9,765.7,667.9,815.5,514.1,818.6z"/>
		</g>
	</g>
	<g>
		<path class="st4" d="M298.5,204.5V679c0.7,50.8,73,101,217.5,107c141.2-3,213.7-53.8,216.9-108.8l0.5-472.7"/>
	</g>
</g>
</svg>
