<?xml version="1.0" encoding="utf-8"?>
<!-- Generator: Adobe Illustrator 26.5.3, SVG Export Plug-In . SVG Version: 6.00 Build 0)  -->
<svg version="1.1" id="圖層_1" xmlns="http://www.w3.org/2000/svg" xmlns:xlink="http://www.w3.org/1999/xlink" x="0px" y="0px"
	 viewBox="0 0 60 60" style="enable-background:new 0 0 60 60;" xml:space="preserve">
<style type="text/css">
	.st0{fill:#4169E1;}
	.st1{fill:#FFFFFF;}
</style>
<g>
	<circle class="st0" cx="30" cy="30" r="25"/>
	<g>
		<path class="st1" d="M29.9,45.5c-6.5,0-12.5-3.8-15.2-9.8c-0.6-1.2,0-2.7,1.2-3.3c1.3-0.6,2.7,0,3.3,1.2c1.9,4.2,6,6.8,10.6,6.8
			c4.7,0,8.9-2.8,10.8-7.1c0.5-1.2,2-1.9,3.3-1.3c1.2,0.6,1.9,2,1.3,3.3C42.7,41.5,36.7,45.5,29.9,45.5z"/>
		<g>
			<circle class="st1" cx="21.5" cy="22.2" r="5"/>
			<circle class="st1" cx="38.5" cy="22.2" r="5"/>
		</g>
	</g>
</g>
</svg>
