<?xml version="1.0" encoding="utf-8"?>
<!-- Generator: Adobe Illustrator 26.5.3, SVG Export Plug-In . SVG Version: 6.00 Build 0)  -->
<svg version="1.1" xmlns="http://www.w3.org/2000/svg" xmlns:xlink="http://www.w3.org/1999/xlink" x="0px" y="0px"
	 viewBox="0 0 1024 1024" style="enable-background:new 0 0 1024 1024;" xml:space="preserve">
<style type="text/css">
	.st0{fill:#FFF4DE;}
	.st1{fill:none;stroke:#D3D3D3;stroke-width:4;stroke-miterlimit:16;stroke-dasharray:3.5667,3.5667;}
	.st2{fill:none;stroke:#D3D3D3;stroke-width:4;stroke-miterlimit:16;}
	.st3{fill:#475476;}
	.st4{fill:none;stroke:#FFFFFF;stroke-width:9.5;stroke-linecap:round;stroke-linejoin:round;stroke-dasharray:0.95,28.5;}
</style>
<g id="圖層_3">
	<rect class="st0" width="1024" height="1024"/>
</g>
<g id="Grid">
	<g>
		<line class="st1" x1="0" y1="512" x2="1024" y2="512"/>
		<line class="st2" x1="0" y1="204.5" x2="1024" y2="204.5"/>
		<line class="st2" x1="0" y1="819.5" x2="1024" y2="819.5"/>
	</g>
</g>
<g id="b">
	<path class="st3" d="M404.5,819.5h-65.1V204.5h65.1V819.5z"/>
	<line class="st4" x1="371.9" y1="204.5" x2="371.9" y2="819.5"/>
	<path class="st3" d="M646.3,514.6c-35-34-77.4-51-127.2-51c-44,0-87.2,18-114.6,44.1c-19.6,18.7-57.8,58-57.8,133.6
		s21.9,105,55.6,135.8c34.8,31.8,81.5,42.4,116.8,42.4c49.8,0,92.2-17,127.2-51c35-34,52.5-76.3,52.5-127S681.3,548.6,646.3,514.6z
		 M599.8,722.7c-22.3,21.1-49.2,31.7-80.7,31.7c-31.6,0-58.5-9.1-80.7-27.3c-22.3-18.2-33.4-46.7-33.4-85.5
		c0-38.8,11.1-67.4,33.4-85.7c22.3-18.4,49.2-27.6,80.7-27.6c31.5,0,58.4,10.6,80.7,31.9c22.3,21.3,33.4,48.4,33.4,81.4
		S622.1,701.6,599.8,722.7z"/>
	<path class="st4" d="M621.5,747.2c-28.3,26.8-62.4,40.2-102.4,40.2c-40,0-74.2-11.6-102.4-34.7c-28.3-23.1-42.4-59.3-42.4-108.5
		c0-49.2,14.1-85.4,42.4-108.8c28.3-23.3,62.4-35,102.4-35c40,0,74.1,13.5,102.4,40.5c28.3,27,42.4,61.4,42.4,103.2
		S649.8,720.4,621.5,747.2z"/>
</g>
</svg>
