<?xml version="1.0" encoding="utf-8"?>
<!-- Generator: Adobe Illustrator 26.5.3, SVG Export Plug-In . SVG Version: 6.00 Build 0)  -->
<svg version="1.1" xmlns="http://www.w3.org/2000/svg" xmlns:xlink="http://www.w3.org/1999/xlink" x="0px" y="0px"
	 viewBox="0 0 1024 1024" style="enable-background:new 0 0 1024 1024;" xml:space="preserve">
<style type="text/css">
	.st0{fill:#FFF4DE;}
	.st1{fill:none;stroke:#D3D3D3;stroke-width:4;stroke-miterlimit:16;stroke-dasharray:3.5667,3.5667;}
	.st2{fill:none;stroke:#D3D3D3;stroke-width:4;stroke-miterlimit:16;}
	.st3{fill:#3A4875;}
	.st4{fill:none;stroke:#FFFFFF;stroke-width:9.5;stroke-linecap:round;stroke-linejoin:round;stroke-dasharray:0.95,28.5;}
</style>
<g id="圖層_3">
	<rect class="st0" width="1024" height="1024"/>
</g>
<g id="Grid">
	<g>
		<line class="st1" x1="0" y1="512" x2="1024" y2="512"/>
		<line class="st2" x1="0" y1="204.5" x2="1024" y2="204.5"/>
		<line class="st2" x1="0" y1="819.5" x2="1024" y2="819.5"/>
	</g>
</g>
<g id="d">
	<path class="st3" d="M339.4,641.6c0,50.6,17.5,93,52.5,127c35,34,77.4,51,127.2,51c35.3,0,82-10.6,116.8-42.4
		c33.7-30.8,55.6-60.1,55.6-135.8s-38.1-114.9-57.8-133.6c-27.4-26.1-70.6-44.1-114.6-44.1c-49.8,0-92.2,17-127.2,51
		C356.9,548.6,339.4,590.9,339.4,641.6z M404.9,641.6c0-33,11.1-60.1,33.4-81.4s49.2-31.9,80.7-31.9c31.5,0,58.5,9.2,80.7,27.6
		c22.3,18.4,33.4,46.9,33.4,85.7c0,38.8-11.1,67.3-33.4,85.5c-22.3,18.2-49.2,27.3-80.7,27.3c-31.5,0-58.5-10.6-80.7-31.7
		C416.1,701.6,404.9,674.6,404.9,641.6z"/>
	<path class="st4" d="M374.3,644.2c0-41.8,14.1-76.3,42.4-103.2c28.3-27,62.4-40.5,102.4-40.5c40,0,74.2,11.7,102.4,35
		c28.3,23.3,42.4,59.6,42.4,108.8c0,49.2-14.1,85.3-42.4,108.5c-28.3,23.1-62.4,34.7-102.4,34.7c-40,0-74.1-13.4-102.4-40.2
		C388.4,720.4,374.3,686.1,374.3,644.2z"/>
	<path class="st3" d="M633.7,204.5h65.1v615.1h-65.1V204.5z"/>
	<line class="st4" x1="666.2" y1="204.5" x2="666.2" y2="819.5"/>
</g>
</svg>
