<?xml version="1.0" encoding="utf-8"?>
<!-- Generator: Adobe Illustrator 26.5.3, SVG Export Plug-In . SVG Version: 6.00 Build 0)  -->
<svg version="1.1" xmlns="http://www.w3.org/2000/svg" xmlns:xlink="http://www.w3.org/1999/xlink" x="0px" y="0px"
	 viewBox="0 0 1024 1024" style="enable-background:new 0 0 1024 1024;" xml:space="preserve">
<style type="text/css">
	.st0{fill:#FFF4DE;}
	.st1{fill:none;stroke:#D3D3D3;stroke-width:4;stroke-miterlimit:16;stroke-dasharray:3.5667,3.5667;}
	.st2{fill:none;stroke:#D3D3D3;stroke-width:4;stroke-miterlimit:16;}
	.st3{fill:#FFBB17;}
	.st4{fill:none;stroke:#FFFFFF;stroke-width:10.9622;stroke-linecap:round;stroke-linejoin:round;stroke-dasharray:1.0962,32.8865;}
</style>
<g id="圖層_3">
	<rect class="st0" width="1024" height="1024"/>
</g>
<g id="Grid">
	<g>
		<line class="st1" x1="0" y1="512" x2="1024" y2="512"/>
		<line class="st2" x1="0" y1="204.5" x2="1024" y2="204.5"/>
		<line class="st2" x1="0" y1="819.5" x2="1024" y2="819.5"/>
	</g>
</g>
<g id="h">
	<path class="st3" d="M351,205.3v615.1h66V205.3H351z"/>
	<line class="st4" x1="384" y1="204.5" x2="384" y2="820.3"/>
	<path class="st3" d="M671.3,611.4v209h-66v-209c0-51.6-31.4-77.4-94.2-77.4c-62.8,0-94.1,25.8-94.1,77.4V493.2
		c28.5-18.6,48.3-23.6,80.4-24.9c1.1-0.1,2.1-0.1,3.2-0.1c0.9,0,1.9-0.1,2.8-0.1c1.1,0,2.1-0.1,3.2-0.1c1.5,0,3,0,4.5,0
		c1.5,0,3,0,4.5,0c1.1,0,2.2,0,3.2,0.1c1,0,1.9,0,2.8,0.1c1.1,0,2.1,0.1,3.2,0.1c32,1.3,58.8,7.3,80.4,18.1
		C649.3,508.3,671.3,550,671.3,611.4z"/>
	<path class="st4" d="M417,528.9c0,0,23.3-25.7,95-25.7s124.2,31.9,124.2,84.4c0,52.5,0,232.7,0,232.7"/>
</g>
</svg>
