<?xml version="1.0" encoding="utf-8"?>
<!-- Generator: Adobe Illustrator 26.5.3, SVG Export Plug-In . SVG Version: 6.00 Build 0)  -->
<svg version="1.1" xmlns="http://www.w3.org/2000/svg" xmlns:xlink="http://www.w3.org/1999/xlink" x="0px" y="0px"
	 viewBox="0 0 1024 1024" style="enable-background:new 0 0 1024 1024;" xml:space="preserve">
<style type="text/css">
	.st0{fill:#FFF4DE;}
	.st1{fill:none;stroke:#D3D3D3;stroke-width:4;stroke-miterlimit:16;stroke-dasharray:3.5667,3.5667;}
	.st2{fill:none;stroke:#D3D3D3;stroke-width:4;stroke-miterlimit:16;}
	.st3{fill:#1A07A0;}
	.st4{fill:none;stroke:#FFFFFF;stroke-width:10.9622;stroke-linecap:round;stroke-linejoin:round;stroke-dasharray:1.0962,32.8865;}
</style>
<g id="圖層_3">
	<rect class="st0" width="1024" height="1024"/>
</g>
<g id="Grid">
	<g>
		<line class="st1" x1="0" y1="512" x2="1024" y2="512"/>
		<line class="st2" x1="0" y1="204.5" x2="1024" y2="204.5"/>
		<line class="st2" x1="0" y1="819.5" x2="1024" y2="819.5"/>
	</g>
</g>
<g id="j">
	<path class="st3" d="M549.4,875.1c0,98.4-41.8,147.6-125.4,147.6c-40.7,0-73.4-11-98.1-32.9l32.9-50.3
		c15.4,12.8,37.1,19.2,65.3,19.2c41,0,61.4-27.9,61.4-83.6V512h64V875.1z"/>
	<path class="st4" d="M516.8,512v396.9c0,0-7.6,78.2-67.3,80.7c-59.7,2.5-108.2-23.6-108.2-23.6"/>
	<path class="st3" d="M549.6,330.9c9,9,13.4,19.7,13.4,32.2c0,12.8-4.5,23.7-13.4,32.6c-9,9-19.7,13.4-32.2,13.4
		c-12.8,0-23.7-4.5-32.6-13.4c-9-9-13.4-19.8-13.4-32.6c0-12.5,4.5-23.3,13.4-32.2c9-9,19.8-13.4,32.6-13.4
		C529.9,317.5,540.7,322,549.6,330.9z"/>
	<line class="st4" x1="517.4" y1="317.5" x2="517.4" y2="409.2"/>
</g>
</svg>
