<?xml version="1.0" encoding="utf-8"?>
<!-- Generator: Adobe Illustrator 26.5.3, SVG Export Plug-In . SVG Version: 6.00 Build 0)  -->
<svg version="1.1" xmlns="http://www.w3.org/2000/svg" xmlns:xlink="http://www.w3.org/1999/xlink" x="0px" y="0px"
	 viewBox="0 0 1024 1024" style="enable-background:new 0 0 1024 1024;" xml:space="preserve">
<style type="text/css">
	.st0{fill:#FFF4DE;}
	.st1{fill:none;stroke:#D3D3D3;stroke-width:4;stroke-miterlimit:16;stroke-dasharray:3.5667,3.5667;}
	.st2{fill:none;stroke:#D3D3D3;stroke-width:4;stroke-miterlimit:16;}
	.st3{fill:#A25B23;}
	.st4{fill:none;stroke:#FFFFFF;stroke-width:11.0185;stroke-linecap:round;stroke-linejoin:round;stroke-dasharray:1.1019,33.0553;}
</style>
<g id="圖層_3">
	<rect class="st0" width="1024" height="1024"/>
</g>
<g id="Grid">
	<g>
		<line class="st1" x1="0" y1="512" x2="1024" y2="512"/>
		<line class="st2" x1="0" y1="204.5" x2="1024" y2="204.5"/>
		<line class="st2" x1="0" y1="819.5" x2="1024" y2="819.5"/>
	</g>
</g>
<g id="n">
	<rect x="372.6" y="511.3" class="st3" width="57.5" height="306.9"/>
	<line class="st4" x1="401.3" y1="512" x2="401.3" y2="818.2"/>
	<path class="st3" d="M512,511.3c-35.8,0-63.1,17.1-82,51.3v108c0-62.8,27.3-95.5,82-98.1c54.7-2.5,82,17.4,82,59.8v185.8h57.5
		V632.4C651.4,551.7,605,511.3,512,511.3z"/>
	<path class="st4" d="M430,597.1c0,0,34.1-54.2,97.6-54.2c63.5,0,96.9,39.2,96.9,85.4c0,46.2,0,189.9,0,189.9"/>
</g>
</svg>
