<?xml version="1.0" encoding="utf-8"?>
<!-- Generator: Adobe Illustrator 26.5.3, SVG Export Plug-In . SVG Version: 6.00 Build 0)  -->
<svg version="1.1" xmlns="http://www.w3.org/2000/svg" xmlns:xlink="http://www.w3.org/1999/xlink" x="0px" y="0px"
	 viewBox="0 0 1024 1024" style="enable-background:new 0 0 1024 1024;" xml:space="preserve">
<style type="text/css">
	.st0{fill:#FFF4DE;}
	.st1{fill:none;stroke:#D3D3D3;stroke-width:4;stroke-miterlimit:16;stroke-dasharray:3.5667,3.5667;}
	.st2{fill:none;stroke:#D3D3D3;stroke-width:4;stroke-miterlimit:16;}
	.st3{fill:#825236;}
	.st4{fill:none;stroke:#FFFFFF;stroke-width:11.0185;stroke-linecap:round;stroke-linejoin:round;stroke-dasharray:1.1019,33.0553;}
</style>
<g id="圖層_3">
	<rect class="st0" width="1024" height="1024"/>
</g>
<g id="Grid">
	<g>
		<line class="st1" x1="0" y1="512" x2="1024" y2="512"/>
		<line class="st2" x1="0" y1="204.5" x2="1024" y2="204.5"/>
		<line class="st2" x1="0" y1="819.5" x2="1024" y2="819.5"/>
	</g>
</g>
<g id="s">
	<path class="st3" d="M516.3,564.7c-11.4,0-21,3-28.8,7c-7,3.6-11.9,9.2-14.6,16.9c-0.7,1.9-0.9,3.9-0.8,5.9
		c0.4,5.3,2,10.2,4.8,14.7c1,1.7,2.4,3.1,4,4.3c9,6.5,31.1,17.6,66.2,33.3c32.1,13.4,55.5,23.3,70.2,29.6
		c14.7,6.3,26.2,15.4,34.5,27.1c8.3,11.8,12.5,24.9,12.5,39.3c0,14.2-5.1,27.8-15.4,40.8c-10.2,13-25,22.3-44.2,27.7
		c-19.2,5.4-41,8.2-65.3,8.2c-45.5,0-78.8-9.1-99.8-27.3c-16.9-14.7-29.1-35-36.4-61.1l58.1-12.5c6.3,13.9,13,24.2,20.1,30.7
		c9.3,9,28.3,14.8,56.9,17.4c0.5,0,1,0.1,1.5,0.1c21.6,0,37.6-1.9,48-5.7c2.6-0.9,5-2,7.1-3.1c11.4-6,10.6-22.8-1.5-27.5
		c-0.1,0-0.2-0.1-0.3-0.1c-1-0.4-1.9-0.9-2.8-1.4c-7.9-5-24.3-12.4-49-22c-0.3-0.1-0.6-0.2-0.9-0.4c-31.1-14.6-54.5-25.9-70.1-34.1
		c-15.7-8.2-28.6-18-38.9-29.4c-10.1-11.3-15.5-26.1-16.1-44.5c0-0.4,0-0.8,0-1.2c1.1-29.7,11-50.4,29.7-62c0.4-0.3,0.8-0.5,1.2-0.8
		c20.9-16.4,48.7-23.8,83.3-22.3c29.3,0,53.2,3.8,71.7,11.4c18.3,7.5,31.8,20.1,40.7,37.7c0.2,0.4,0.4,0.8,0.7,1.2
		c5.6,8.9,10.2,17.4,13.7,25.6l-60,15.2C593.6,595.9,588.2,564.7,516.3,564.7z"/>
	<path class="st4" d="M629.3,591.9c-2.8-7.3-23.6-55.3-95.5-55.3c-62.4,0-83.7,28.5-86.7,36.8c-19.4,53.7,29.8,69.1,65,84.9
		c32.1,13.4,55.5,23.3,70.2,29.6c14.7,6.3,26.2,15.4,34.5,27.1c8.3,11.8,17.7,64.2-9.1,70.2c-123.3,27.4-165.3-34.8-172.7-60.9"/>
</g>
</svg>
