<?xml version="1.0" encoding="utf-8"?>
<!-- Generator: Adobe Illustrator 26.5.3, SVG Export Plug-In . SVG Version: 6.00 Build 0)  -->
<svg version="1.1" xmlns="http://www.w3.org/2000/svg" xmlns:xlink="http://www.w3.org/1999/xlink" x="0px" y="0px"
	 viewBox="0 0 1024 1024" style="enable-background:new 0 0 1024 1024;" xml:space="preserve">
<style type="text/css">
	.st0{fill:#FFF4DE;}
	.st1{fill:none;stroke:#D3D3D3;stroke-width:4;stroke-miterlimit:16;stroke-dasharray:3.5667,3.5667;}
	.st2{fill:none;stroke:#D3D3D3;stroke-width:4;stroke-miterlimit:16;}
	.st3{fill:#E49354;}
	.st4{fill:none;stroke:#FFFFFF;stroke-width:11.0185;stroke-linecap:round;stroke-linejoin:round;stroke-dasharray:1.1019,33.0553;}
</style>
<g id="圖層_3">
	<rect class="st0" width="1024" height="1024"/>
</g>
<g id="Grid">
	<g>
		<line class="st1" x1="0" y1="512" x2="1024" y2="512"/>
		<line class="st2" x1="0" y1="204.5" x2="1024" y2="204.5"/>
		<line class="st2" x1="0" y1="819.5" x2="1024" y2="819.5"/>
	</g>
</g>
<g id="u">
	<path class="st3" d="M594.2,511v117.1c0,83.4-27.4,126.4-82.2,129s-82.2-17.4-82.2-59.9V511h-57.6v186.2
		c2.6,80.9,50.4,121.3,143.6,121.3c33.3,0,123.5-25.1,135.9-150.1V511H594.2z"/>
	<path class="st4" d="M400.5,511v205.6c0,0,16.4,71,97.2,71s125.3-54.6,125.3-68c0-13.5,0-208.6,0-208.6"/>
	<rect x="594.2" y="511" class="st3" width="57.6" height="307.5"/>
	<line class="st4" x1="623" y1="511" x2="623" y2="818.5"/>
</g>
</svg>
