<?xml version="1.0" encoding="utf-8"?>
<!-- Generator: Adobe Illustrator 26.5.3, SVG Export Plug-In . SVG Version: 6.00 Build 0)  -->
<svg version="1.1" xmlns="http://www.w3.org/2000/svg" xmlns:xlink="http://www.w3.org/1999/xlink" x="0px" y="0px"
	 viewBox="0 0 1024 1024" style="enable-background:new 0 0 1024 1024;" xml:space="preserve">
<style type="text/css">
	.st0{fill:#FFF4DE;}
	.st1{fill:none;stroke:#D3D3D3;stroke-width:4;stroke-miterlimit:16;stroke-dasharray:3.5667,3.5667;}
	.st2{fill:none;stroke:#D3D3D3;stroke-width:4;stroke-miterlimit:16;}
	.st3{fill:#233A68;}
	.st4{fill:none;stroke:#FFFFFF;stroke-width:11.0185;stroke-linecap:round;stroke-linejoin:round;stroke-dasharray:1.1019,33.0553;}
</style>
<g id="圖層_3">
	<rect class="st0" width="1024" height="1024"/>
</g>
<g id="Grid">
	<g>
		<line class="st1" x1="0" y1="512" x2="1024" y2="512"/>
		<line class="st2" x1="0" y1="204.5" x2="1024" y2="204.5"/>
		<line class="st2" x1="0" y1="819.5" x2="1024" y2="819.5"/>
	</g>
</g>
<g id="y">
	<polygon class="st3" points="523.2,748 494.9,820.5 344.6,512 409.1,512 	"/>
	<line class="st4" x1="376.2" y1="512" x2="509.1" y2="784.1"/>
	<path class="st3" d="M687.4,512L512,925.5c-34.3,73.1-89.4,105.5-165.4,97.3c-9.6-1.6-18.3-3.6-26.3-6l-4-57.8
		c13.8,4.3,29.5,6.8,47,7.6c43.9,0,74.8-20.5,92.9-61.4l38.7-84.6l28.3-72.5L624,512H687.4z"/>
	<path class="st4" d="M653.7,512L479.1,930.1c0,0-58.1,96.7-160.6,61.2"/>
</g>
</svg>
